<?xml version="1.0" encoding="UTF-8"?>
<svg version="1.1" xmlns="http://www.w3.org/2000/svg" width="2000" height="1500">
<path d="M0 0 C660 0 1320 0 2000 0 C2000 495 2000 990 2000 1500 C1340 1500 680 1500 0 1500 C0 1005 0 510 0 0 Z " fill="#293040" transform="translate(0,0)"/>
<path d="M0 0 C1.61781372 0.94963623 1.61781372 0.94963623 3.26831055 1.91845703 C4.23478516 2.49072021 5.20125977 3.0629834 6.19702148 3.65258789 C8.49269698 4.8626056 10.21500519 5.73412053 12.78393555 6.01611328 C15.35967366 4.74196117 17.67756606 3.41944666 20.09643555 1.89111328 C21.61345246 0.96724478 23.13175462 0.04548443 24.65112305 -0.87451172 C25.88040527 -1.6237793 25.88040527 -1.6237793 27.13452148 -2.38818359 C31.95216441 -5.28977908 36.83427134 -8.07651773 41.72143555 -10.85888672 C42.66736572 -11.40561035 43.6132959 -11.95233398 44.58789062 -12.515625 C52.84597015 -17.21529799 61.16259934 -20.74415924 70.34643555 -23.17138672 C71.54397461 -23.49494141 72.74151367 -23.81849609 73.9753418 -24.15185547 C104.32484614 -30.78205488 136.81295433 -24.62282437 162.88549805 -8.00732422 C186.39474004 8.61470322 199.41532938 31.09155534 213.32275391 55.51098633 C214.41486265 57.38335522 215.58157034 59.21256547 216.78393555 61.01611328 C218.84465959 61.47087044 218.84465959 61.47087044 221.25512695 61.40087891 C222.18434967 61.41098999 223.11357239 61.42110107 224.07095337 61.43151855 C225.08225311 61.42849731 226.09355286 61.42547607 227.13549805 61.42236328 C228.18232758 61.43319946 229.2291571 61.44403564 230.30770874 61.4552002 C233.67484558 61.48956989 237.04164631 61.50504933 240.40893555 61.51611328 C258.10028613 61.5755496 274.75851273 61.73739444 291.47143555 68.26611328 C292.26614258 68.56912354 293.06084961 68.87213379 293.87963867 69.18432617 C321.65119052 80.0476727 345.28722749 101.44504531 357.5378418 128.81298828 C363.75486125 143.46211275 366.95570946 157.25958957 366.8815918 173.07470703 C366.88017685 174.21899673 366.8787619 175.36328644 366.87730408 176.54225159 C366.87172856 180.17939929 366.85918053 183.81648433 366.84643555 187.45361328 C366.84141738 189.92691968 366.83685503 192.40022705 366.83276367 194.87353516 C366.82176714 200.9210824 366.80505343 206.96859336 366.78393555 213.01611328 C367.69820312 213.30494385 368.6124707 213.59377441 369.55444336 213.89135742 C372.1034541 214.77911766 374.16331264 215.64186217 376.45581055 217.01220703 C377.1111377 217.40029541 377.76646484 217.78838379 378.44165039 218.18823242 C379.13210449 218.60580811 379.82255859 219.02338379 380.53393555 219.45361328 C381.26692871 219.8924585 381.99992187 220.33130371 382.75512695 220.78344727 C384.30766075 221.71480291 385.85857327 222.64886583 387.40795898 223.58544922 C389.76737605 225.00614219 392.1376687 226.40702416 394.51049805 227.80517578 C403.16732528 232.94355583 411.31844072 238.20283017 418.78393555 245.01611328 C419.68241211 245.82177734 420.58088867 246.62744141 421.5065918 247.45751953 C442.8526187 267.60264478 455.0983455 296.03700654 455.98706055 325.24267578 C456.44569556 356.88558923 444.8164049 380.8704291 428.9128418 407.47705078 C428.5494873 408.09161133 428.18613281 408.70617187 427.81176758 409.33935547 C426.91376823 410.80431023 425.93122657 412.21675637 424.9362793 413.61767578 C423.38072875 416.85533015 423.96626281 418.55078908 424.78393555 422.01611328 C426.0108195 424.67778694 426.0108195 424.67778694 427.62768555 427.25439453 C428.21042236 428.23093994 428.79315918 429.20748535 429.39355469 430.21362305 C430.32929321 431.75554321 430.32929321 431.75554321 431.28393555 433.32861328 C432.5661213 435.48874487 433.84606222 437.65021047 435.1237793 439.81298828 C436.06326416 441.39950195 436.06326416 441.39950195 437.02172852 443.01806641 C453.61765208 471.25274933 460.86398487 501.53871574 452.8190918 533.98876953 C447.40634204 554.5505743 437.46435765 571.65224509 422.78393555 587.01611328 C422.24639648 587.61681641 421.70885742 588.21751953 421.1550293 588.83642578 C409.08744497 601.84159185 392.00313086 609.81565646 376.69970703 618.36547852 C374.78618963 619.44873156 372.89354635 620.56989674 371.02636719 621.73120117 C368.78393555 623.01611328 368.78393555 623.01611328 366.78393555 623.01611328 C366.79059738 623.59223862 366.79725922 624.16836395 366.80412292 624.76194763 C366.87133627 630.84701867 366.91608606 636.93198161 366.94873047 643.01733398 C366.96366637 645.27779433 366.98402247 647.53822649 367.01025391 649.79858398 C367.41344105 685.47669333 358.37862362 715.56391775 333.40893555 741.76611328 C319.10821903 755.40990643 302.78093534 764.6220559 283.78393555 770.01611328 C282.52798584 770.38406006 281.27203613 770.75200684 279.97802734 771.13110352 C271.09541646 773.52093785 262.98978075 774.22729302 253.79956055 773.78173828 C232.73333612 771.48526257 232.73333612 771.48526257 213.3293457 777.14355469 C208.30913201 782.58629566 205.94653651 788.97048495 203.80249023 795.96728516 C202.33072124 800.37271449 200.04474704 803.99322878 197.47143555 807.82861328 C197.06868408 808.46500732 196.66593262 809.10140137 196.25097656 809.75708008 C178.92339494 837.04378743 152.74395193 853.6789177 121.59643555 860.82861328 C105.11408666 863.95200474 85.89116673 863.82035102 69.78393555 859.01611328 C68.55545898 858.68353516 67.32698242 858.35095703 66.0612793 858.00830078 C50.53502989 853.40764707 35.73405494 844.46389675 22.20385742 835.72216797 C21.61787781 835.34724213 21.03189819 834.97231628 20.42816162 834.58602905 C18.79587394 833.53504032 17.17385114 832.46815896 15.55249023 831.40039062 C12.99250537 829.83448476 12.99250537 829.83448476 10.73071289 830.12915039 C8.31639483 831.2291275 6.01949217 832.43175052 3.71362305 833.74658203 C2.73393555 834.3028125 1.75424805 834.85904297 0.74487305 835.43212891 C-0.27348633 836.01671875 -1.2918457 836.60130859 -2.34106445 837.20361328 C-3.3362207 837.76886719 -4.33137695 838.33412109 -5.35668945 838.91650391 C-10.07987172 841.60797788 -14.76517005 844.34256344 -19.3996582 847.18408203 C-43.71312873 861.82104294 -72.66416806 865.86796269 -100.52856445 860.89111328 C-102.77301222 860.32343094 -105.00331549 859.69695912 -107.21606445 859.01611328 C-107.87251953 858.82275391 -108.52897461 858.62939453 -109.20532227 858.43017578 C-146.35869937 847.29962175 -167.87376843 820.7168973 -186.40844727 788.13232422 C-187.00496094 787.10397461 -187.60147461 786.075625 -188.21606445 785.01611328 C-188.59846283 784.17649048 -188.98086121 783.33686768 -189.37484741 782.47180176 C-191.88632636 777.2108961 -191.88632636 777.2108961 -196.5592041 774.11956787 C-199.45055505 773.79305186 -202.19100487 773.78672588 -205.09887695 773.89111328 C-206.14953339 773.88781006 -207.20018982 773.88450684 -208.28268433 773.88110352 C-211.63760456 773.87936227 -214.9869646 773.94523164 -218.34106445 774.01611328 C-221.67251381 774.04464093 -225.00361262 774.05901899 -228.33517456 774.06542969 C-230.4034367 774.07394746 -232.47171508 774.09731833 -234.5395813 774.13867188 C-245.30988444 774.27776152 -255.35514645 772.3487519 -265.52856445 768.89111328 C-266.43010254 768.58616943 -267.33164062 768.28122559 -268.26049805 767.96704102 C-296.26339298 758.15931187 -319.7297985 737.43169026 -333.21606445 711.01611328 C-335.5103856 706.12156151 -337.41366305 701.10935078 -339.21606445 696.01611328 C-339.53317383 695.13439453 -339.8502832 694.25267578 -340.17700195 693.34423828 C-345.18063957 678.18470254 -344.46147306 662.38510604 -344.34106445 646.64111328 C-344.33101321 644.34424219 -344.32189116 642.04736683 -344.3137207 639.75048828 C-344.2918804 634.1722689 -344.25857325 628.59421147 -344.21606445 623.01611328 C-344.96283447 622.72728271 -345.70960449 622.43845215 -346.47900391 622.14086914 C-348.75715405 621.20469594 -350.85716047 620.20746435 -353.0090332 619.02001953 C-353.71278076 618.63193115 -354.41652832 618.24384277 -355.14160156 617.84399414 C-355.88804932 617.42641846 -356.63449707 617.00884277 -357.40356445 616.57861328 C-358.18803955 616.13976807 -358.97251465 615.70092285 -359.78076172 615.2487793 C-385.61473118 600.69127703 -385.61473118 600.69127703 -396.21606445 591.01611328 C-397.11454102 590.21044922 -398.01301758 589.40478516 -398.9387207 588.57470703 C-415.8163044 572.64663578 -425.61260395 552.27115277 -431.21606445 530.01611328 C-431.46227539 529.11248047 -431.70848633 528.20884766 -431.9621582 527.27783203 C-440.66641134 489.6394409 -422.82502924 456.06844025 -404.21606445 425.01611328 C-403.63703369 424.20883789 -403.05800293 423.4015625 -402.46142578 422.56982422 C-400.82264171 419.20936913 -401.19374359 417.5745265 -402.21606445 414.01611328 C-403.45941509 411.32162747 -403.45941509 411.32162747 -405.0949707 408.70751953 C-405.6827832 407.72082275 -406.2705957 406.73412598 -406.8762207 405.7175293 C-407.81788086 404.16376587 -407.81788086 404.16376587 -408.77856445 402.57861328 C-410.06279302 400.41293988 -411.34535171 398.24627536 -412.6262207 396.07861328 C-413.2464209 395.03318359 -413.86662109 393.98775391 -414.50561523 392.91064453 C-431.28968865 364.50756511 -438.24024724 333.8211654 -430.28637695 301.20361328 C-420.23278676 264.82178646 -396.58433777 241.73025842 -364.65356445 223.57861328 C-361.15173838 221.59825001 -357.64390261 219.62889361 -354.13183594 217.66674805 C-352.21831854 216.583495 -350.32567525 215.46232982 -348.45849609 214.30102539 C-346.21606445 213.01611328 -346.21606445 213.01611328 -344.21606445 213.01611328 C-344.22272629 212.39796249 -344.22938812 211.77981171 -344.23625183 211.14292908 C-344.30326679 204.63643665 -344.34813581 198.13004421 -344.38085938 191.62329102 C-344.39583018 189.20365407 -344.41621404 186.7840437 -344.44238281 184.36450195 C-344.71551693 158.4381828 -344.71551693 158.4381828 -341.21606445 146.01611328 C-340.99684326 145.20150635 -340.77762207 144.38689941 -340.55175781 143.54760742 C-339.96490479 141.52561323 -339.31066904 139.55682242 -338.59106445 137.57861328 C-338.33800537 136.87889404 -338.08494629 136.1791748 -337.82421875 135.45825195 C-326.36220488 105.1456285 -302.48017377 82.97805035 -273.34106445 69.76611328 C-261.27277773 64.77280863 -248.39665742 61.57288959 -235.31015015 62.36279297 C-212.11375481 64.96570658 -212.11375481 64.96570658 -190.71313477 58.87548828 C-185.71442584 53.44731005 -183.37500121 47.04218783 -181.23901367 40.06933594 C-179.75387618 35.63660813 -177.43618199 31.99753427 -174.84106445 28.14111328 C-174.04020605 26.8794435 -173.23942096 25.61772718 -172.4387207 24.35595703 C-159.55554231 4.72945621 -142.32921634 -8.41407036 -121.21606445 -17.98388672 C-120.28793945 -18.40541016 -119.35981445 -18.82693359 -118.40356445 -19.26123047 C-76.95984228 -36.86152915 -36.10564963 -21.3397411 0 0 Z " fill="#293040" transform="translate(988.216064453125,331.98388671875)"/>
<path d="M0 0 C1.61781372 0.94963623 1.61781372 0.94963623 3.26831055 1.91845703 C4.23478516 2.49072021 5.20125977 3.0629834 6.19702148 3.65258789 C8.49269698 4.8626056 10.21500519 5.73412053 12.78393555 6.01611328 C15.35967366 4.74196117 17.67756606 3.41944666 20.09643555 1.89111328 C21.61345246 0.96724478 23.13175462 0.04548443 24.65112305 -0.87451172 C25.88040527 -1.6237793 25.88040527 -1.6237793 27.13452148 -2.38818359 C31.95216441 -5.28977908 36.83427134 -8.07651773 41.72143555 -10.85888672 C42.66736572 -11.40561035 43.6132959 -11.95233398 44.58789062 -12.515625 C52.84597015 -17.21529799 61.16259934 -20.74415924 70.34643555 -23.17138672 C71.54397461 -23.49494141 72.74151367 -23.81849609 73.9753418 -24.15185547 C104.32484614 -30.78205488 136.81295433 -24.62282437 162.88549805 -8.00732422 C186.39474004 8.61470322 199.41532938 31.09155534 213.32275391 55.51098633 C214.41486265 57.38335522 215.58157034 59.21256547 216.78393555 61.01611328 C218.84465959 61.47087044 218.84465959 61.47087044 221.25512695 61.40087891 C222.18434967 61.41098999 223.11357239 61.42110107 224.07095337 61.43151855 C225.08225311 61.42849731 226.09355286 61.42547607 227.13549805 61.42236328 C228.18232758 61.43319946 229.2291571 61.44403564 230.30770874 61.4552002 C233.67484558 61.48956989 237.04164631 61.50504933 240.40893555 61.51611328 C258.10028613 61.5755496 274.75851273 61.73739444 291.47143555 68.26611328 C292.26614258 68.56912354 293.06084961 68.87213379 293.87963867 69.18432617 C321.65119052 80.0476727 345.28722749 101.44504531 357.5378418 128.81298828 C363.75486125 143.46211275 366.95570946 157.25958957 366.8815918 173.07470703 C366.88017685 174.21899673 366.8787619 175.36328644 366.87730408 176.54225159 C366.87172856 180.17939929 366.85918053 183.81648433 366.84643555 187.45361328 C366.84141738 189.92691968 366.83685503 192.40022705 366.83276367 194.87353516 C366.82176714 200.9210824 366.80505343 206.96859336 366.78393555 213.01611328 C367.69820312 213.30494385 368.6124707 213.59377441 369.55444336 213.89135742 C372.1034541 214.77911766 374.16331264 215.64186217 376.45581055 217.01220703 C377.1111377 217.40029541 377.76646484 217.78838379 378.44165039 218.18823242 C379.13210449 218.60580811 379.82255859 219.02338379 380.53393555 219.45361328 C381.26692871 219.8924585 381.99992187 220.33130371 382.75512695 220.78344727 C384.30766075 221.71480291 385.85857327 222.64886583 387.40795898 223.58544922 C389.76737605 225.00614219 392.1376687 226.40702416 394.51049805 227.80517578 C403.16732528 232.94355583 411.31844072 238.20283017 418.78393555 245.01611328 C419.68241211 245.82177734 420.58088867 246.62744141 421.5065918 247.45751953 C442.8526187 267.60264478 455.0983455 296.03700654 455.98706055 325.24267578 C456.44569556 356.88558923 444.8164049 380.8704291 428.9128418 407.47705078 C428.5494873 408.09161133 428.18613281 408.70617187 427.81176758 409.33935547 C426.91376823 410.80431023 425.93122657 412.21675637 424.9362793 413.61767578 C423.38072875 416.85533015 423.96626281 418.55078908 424.78393555 422.01611328 C426.0108195 424.67778694 426.0108195 424.67778694 427.62768555 427.25439453 C428.21042236 428.23093994 428.79315918 429.20748535 429.39355469 430.21362305 C430.32929321 431.75554321 430.32929321 431.75554321 431.28393555 433.32861328 C432.5661213 435.48874487 433.84606222 437.65021047 435.1237793 439.81298828 C436.06326416 441.39950195 436.06326416 441.39950195 437.02172852 443.01806641 C453.61765208 471.25274933 460.86398487 501.53871574 452.8190918 533.98876953 C447.40634204 554.5505743 437.46435765 571.65224509 422.78393555 587.01611328 C422.24639648 587.61681641 421.70885742 588.21751953 421.1550293 588.83642578 C409.08744497 601.84159185 392.00313086 609.81565646 376.69970703 618.36547852 C374.78618963 619.44873156 372.89354635 620.56989674 371.02636719 621.73120117 C368.78393555 623.01611328 368.78393555 623.01611328 366.78393555 623.01611328 C366.79059738 623.59223862 366.79725922 624.16836395 366.80412292 624.76194763 C366.87133627 630.84701867 366.91608606 636.93198161 366.94873047 643.01733398 C366.96366637 645.27779433 366.98402247 647.53822649 367.01025391 649.79858398 C367.41344105 685.47669333 358.37862362 715.56391775 333.40893555 741.76611328 C319.10821903 755.40990643 302.78093534 764.6220559 283.78393555 770.01611328 C282.52798584 770.38406006 281.27203613 770.75200684 279.97802734 771.13110352 C271.09541646 773.52093785 262.98978075 774.22729302 253.79956055 773.78173828 C232.73333612 771.48526257 232.73333612 771.48526257 213.3293457 777.14355469 C208.30913201 782.58629566 205.94653651 788.97048495 203.80249023 795.96728516 C202.33072124 800.37271449 200.04474704 803.99322878 197.47143555 807.82861328 C197.06868408 808.46500732 196.66593262 809.10140137 196.25097656 809.75708008 C178.92339494 837.04378743 152.74395193 853.6789177 121.59643555 860.82861328 C105.11408666 863.95200474 85.89116673 863.82035102 69.78393555 859.01611328 C68.55545898 858.68353516 67.32698242 858.35095703 66.0612793 858.00830078 C50.53502989 853.40764707 35.73405494 844.46389675 22.20385742 835.72216797 C21.61787781 835.34724213 21.03189819 834.97231628 20.42816162 834.58602905 C18.79587394 833.53504032 17.17385114 832.46815896 15.55249023 831.40039062 C12.99250537 829.83448476 12.99250537 829.83448476 10.73071289 830.12915039 C8.31639483 831.2291275 6.01949217 832.43175052 3.71362305 833.74658203 C2.73393555 834.3028125 1.75424805 834.85904297 0.74487305 835.43212891 C-0.27348633 836.01671875 -1.2918457 836.60130859 -2.34106445 837.20361328 C-3.3362207 837.76886719 -4.33137695 838.33412109 -5.35668945 838.91650391 C-10.07987172 841.60797788 -14.76517005 844.34256344 -19.3996582 847.18408203 C-43.71312873 861.82104294 -72.66416806 865.86796269 -100.52856445 860.89111328 C-102.77301222 860.32343094 -105.00331549 859.69695912 -107.21606445 859.01611328 C-107.87251953 858.82275391 -108.52897461 858.62939453 -109.20532227 858.43017578 C-146.35869937 847.29962175 -167.87376843 820.7168973 -186.40844727 788.13232422 C-187.00496094 787.10397461 -187.60147461 786.075625 -188.21606445 785.01611328 C-188.59846283 784.17649048 -188.98086121 783.33686768 -189.37484741 782.47180176 C-191.88632636 777.2108961 -191.88632636 777.2108961 -196.5592041 774.11956787 C-199.45055505 773.79305186 -202.19100487 773.78672588 -205.09887695 773.89111328 C-206.14953339 773.88781006 -207.20018982 773.88450684 -208.28268433 773.88110352 C-211.63760456 773.87936227 -214.9869646 773.94523164 -218.34106445 774.01611328 C-221.67251381 774.04464093 -225.00361262 774.05901899 -228.33517456 774.06542969 C-230.4034367 774.07394746 -232.47171508 774.09731833 -234.5395813 774.13867188 C-245.30988444 774.27776152 -255.35514645 772.3487519 -265.52856445 768.89111328 C-266.43010254 768.58616943 -267.33164062 768.28122559 -268.26049805 767.96704102 C-296.26339298 758.15931187 -319.7297985 737.43169026 -333.21606445 711.01611328 C-335.5103856 706.12156151 -337.41366305 701.10935078 -339.21606445 696.01611328 C-339.53317383 695.13439453 -339.8502832 694.25267578 -340.17700195 693.34423828 C-345.18063957 678.18470254 -344.46147306 662.38510604 -344.34106445 646.64111328 C-344.33101321 644.34424219 -344.32189116 642.04736683 -344.3137207 639.75048828 C-344.2918804 634.1722689 -344.25857325 628.59421147 -344.21606445 623.01611328 C-344.96283447 622.72728271 -345.70960449 622.43845215 -346.47900391 622.14086914 C-348.75715405 621.20469594 -350.85716047 620.20746435 -353.0090332 619.02001953 C-353.71278076 618.63193115 -354.41652832 618.24384277 -355.14160156 617.84399414 C-355.88804932 617.42641846 -356.63449707 617.00884277 -357.40356445 616.57861328 C-358.18803955 616.13976807 -358.97251465 615.70092285 -359.78076172 615.2487793 C-385.61473118 600.69127703 -385.61473118 600.69127703 -396.21606445 591.01611328 C-397.11454102 590.21044922 -398.01301758 589.40478516 -398.9387207 588.57470703 C-415.8163044 572.64663578 -425.61260395 552.27115277 -431.21606445 530.01611328 C-431.46227539 529.11248047 -431.70848633 528.20884766 -431.9621582 527.27783203 C-440.66641134 489.6394409 -422.82502924 456.06844025 -404.21606445 425.01611328 C-403.63703369 424.20883789 -403.05800293 423.4015625 -402.46142578 422.56982422 C-400.82264171 419.20936913 -401.19374359 417.5745265 -402.21606445 414.01611328 C-403.45941509 411.32162747 -403.45941509 411.32162747 -405.0949707 408.70751953 C-405.6827832 407.72082275 -406.2705957 406.73412598 -406.8762207 405.7175293 C-407.81788086 404.16376587 -407.81788086 404.16376587 -408.77856445 402.57861328 C-410.06279302 400.41293988 -411.34535171 398.24627536 -412.6262207 396.07861328 C-413.2464209 395.03318359 -413.86662109 393.98775391 -414.50561523 392.91064453 C-431.28968865 364.50756511 -438.24024724 333.8211654 -430.28637695 301.20361328 C-420.23278676 264.82178646 -396.58433777 241.73025842 -364.65356445 223.57861328 C-361.15173838 221.59825001 -357.64390261 219.62889361 -354.13183594 217.66674805 C-352.21831854 216.583495 -350.32567525 215.46232982 -348.45849609 214.30102539 C-346.21606445 213.01611328 -346.21606445 213.01611328 -344.21606445 213.01611328 C-344.22272629 212.39796249 -344.22938812 211.77981171 -344.23625183 211.14292908 C-344.30326679 204.63643665 -344.34813581 198.13004421 -344.38085938 191.62329102 C-344.39583018 189.20365407 -344.41621404 186.7840437 -344.44238281 184.36450195 C-344.71551693 158.4381828 -344.71551693 158.4381828 -341.21606445 146.01611328 C-340.99684326 145.20150635 -340.77762207 144.38689941 -340.55175781 143.54760742 C-339.96490479 141.52561323 -339.31066904 139.55682242 -338.59106445 137.57861328 C-338.33800537 136.87889404 -338.08494629 136.1791748 -337.82421875 135.45825195 C-326.36220488 105.1456285 -302.48017377 82.97805035 -273.34106445 69.76611328 C-261.27277773 64.77280863 -248.39665742 61.57288959 -235.31015015 62.36279297 C-212.11375481 64.96570658 -212.11375481 64.96570658 -190.71313477 58.87548828 C-185.71442584 53.44731005 -183.37500121 47.04218783 -181.23901367 40.06933594 C-179.75387618 35.63660813 -177.43618199 31.99753427 -174.84106445 28.14111328 C-174.04020605 26.8794435 -173.23942096 25.61772718 -172.4387207 24.35595703 C-159.55554231 4.72945621 -142.32921634 -8.41407036 -121.21606445 -17.98388672 C-120.28793945 -18.40541016 -119.35981445 -18.82693359 -118.40356445 -19.26123047 C-76.95984228 -36.86152915 -36.10564963 -21.3397411 0 0 Z M-105.4284153 85.03091812 C-110.44365368 88.60246763 -115.85045192 91.50987942 -121.21606445 94.51611328 C-123.38428979 95.76340768 -125.55114609 97.01308777 -127.71606445 98.26611328 C-166.71606445 120.76611328 -166.71606445 120.76611328 -169.96655273 122.64135742 C-172.13163516 123.89046846 -174.29667428 125.13965457 -176.46166992 126.38891602 C-181.90222151 129.52813638 -187.34353661 132.66601891 -192.78637695 135.80126953 C-198.18557039 138.91185323 -203.58245739 142.02639905 -208.97729492 145.14453125 C-211.17632386 146.41528022 -213.37588682 147.68510543 -215.57592773 148.95410156 C-218.85395131 150.84609281 -222.1290995 152.74297128 -225.40356445 154.64111328 C-226.38921387 155.20902588 -227.37486328 155.77693848 -228.39038086 156.36206055 C-231.01544086 157.8874456 -233.61572322 159.44913154 -236.21606445 161.01611328 C-236.86333496 161.36617432 -237.51060547 161.71623535 -238.17749023 162.0769043 C-244.48819105 165.85361602 -247.31656561 172.42885349 -250.71606445 178.70361328 C-251.41344513 179.96158744 -252.11261458 181.21857145 -252.81347656 182.47460938 C-254.25310335 185.05689186 -255.68583865 187.64281336 -257.11401367 190.23144531 C-260.25789266 195.91259112 -263.52043742 201.52497272 -266.77856445 207.14111328 C-268.01980241 209.28934712 -269.26068766 211.4377848 -270.5012207 213.58642578 C-271.41991943 215.17632324 -271.41991943 215.17632324 -272.35717773 216.79833984 C-274.85295789 221.11858971 -277.34612742 225.44034316 -279.83911133 229.76220703 C-281.71316009 233.01107824 -283.58765873 236.25968961 -285.4621582 239.50830078 C-287.97675881 243.86676716 -290.48961107 248.22623519 -293.0012207 252.58642578 C-304.24431912 272.0988572 -304.24431912 272.0988572 -309.33744335 280.7762022 C-310.48381984 282.74240413 -311.62026691 284.71446015 -312.74261189 286.69447803 C-315.72291963 291.92255591 -318.81363962 296.92936824 -322.33476257 301.81169128 C-336.11824168 321.79455841 -336.57475707 340.35025144 -336.26647782 364.0603869 C-336.21386481 369.18249054 -336.24370223 374.30430137 -336.26042175 379.42655945 C-336.27568957 388.01437244 -336.22646153 396.59993258 -336.13720703 405.18725586 C-336.03548436 415.05093014 -336.03751477 424.91048275 -336.09467775 434.77442294 C-336.14772549 444.35479327 -336.1264058 453.93367811 -336.07248497 463.51399803 C-336.05101276 467.55086236 -336.05452547 471.58648045 -336.07959938 475.62331581 C-336.28050168 506.16629373 -336.28050168 506.16629373 -322.71319103 533.01005745 C-320.67113989 535.74627805 -319.05772413 538.60980463 -317.41137695 541.59814453 C-316.38941653 543.34250032 -315.36601642 545.08601358 -314.34106445 546.82861328 C-307.54505728 558.4342647 -300.82015562 570.08006019 -294.10717773 581.73388672 C-290.97926297 587.1627127 -287.84747997 592.58930609 -284.71606445 598.01611328 C-283.46604566 600.18276911 -282.21604567 602.34943578 -280.96606445 604.51611328 C-280.34731445 605.58861328 -279.72856445 606.66111328 -279.09106445 607.76611328 C-273.46606445 617.51611328 -273.46606445 617.51611328 -271.58886719 620.77026367 C-270.3465864 622.92332365 -269.10391457 625.07615807 -267.86083984 627.22875977 C-264.95770333 632.25712789 -262.05827578 637.28751142 -259.17330933 642.32632446 C-258.15729261 644.10043873 -257.13999517 645.87381247 -256.12231445 647.64697266 C-254.85024154 649.86426642 -253.5805416 652.08292403 -252.3137207 654.30322266 C-251.1648327 656.30356432 -250.00399562 658.29710289 -248.82983398 660.28271484 C-247.81173146 662.00717413 -246.81924913 663.74726235 -245.86401367 665.50732422 C-241.84332571 672.40034853 -236.38718961 675.44302097 -229.46606445 679.14111328 C-227.71571589 680.11276347 -225.96538492 681.08444726 -224.21618652 682.0581665 C-222.41038694 683.06005959 -220.59979367 684.05282447 -218.78833008 685.04443359 C-213.2109722 688.10854693 -207.71874843 691.32053328 -202.21606445 694.51611328 C-200.05240386 695.76550747 -197.88833996 697.01420347 -195.72387695 698.26220703 C-194.65169922 698.8807959 -193.57952148 699.49938477 -192.47485352 700.13671875 C-189.1990688 702.02591494 -185.92250553 703.91375437 -182.64575195 705.80126953 C-172.15374274 711.84666532 -161.67131127 717.90732339 -151.21606445 724.01611328 C-136.00517938 732.90184073 -120.75452251 741.71859055 -105.4543457 750.44970703 C-104.81091217 750.81694885 -104.16747864 751.18419067 -103.50454712 751.56256104 C-100.37524864 753.3482319 -97.24508052 755.13235208 -94.11352539 756.9140625 C-92.99365234 757.55230957 -91.8737793 758.19055664 -90.7199707 758.84814453 C-89.72811768 759.41251221 -88.73626465 759.97687988 -87.71435547 760.55834961 C-85.84436218 761.64949883 -84.01750263 762.81515449 -82.21606445 764.01611328 C-79.75242473 764.23666794 -77.397168 764.34206123 -74.93101501 764.3575592 C-74.18317216 764.36985154 -73.4353293 764.38214388 -72.66482455 764.39480871 C-70.15060706 764.43332206 -67.63646689 764.45737128 -65.12207031 764.48120117 C-63.32146347 764.50518984 -61.52086532 764.5298387 -59.72027588 764.55509949 C-53.79062036 764.63349965 -47.86086473 764.68885639 -41.9309082 764.73876953 C-40.91906692 764.74730981 -39.90722563 764.75585008 -38.86472249 764.76464915 C-29.3003886 764.84322977 -19.73601443 764.91079671 -10.17146969 764.95755863 C2.01400452 765.01809367 14.19680043 765.12780712 26.38114268 765.30554396 C34.97088876 765.42653294 43.55991717 765.48846063 52.15048307 765.50878137 C57.26670226 765.52247886 62.37973743 765.56067859 67.49501228 765.66319466 C91.14231362 766.11558558 108.52574785 765.52326012 127.99741936 751.00187492 C133.01139204 747.42875567 138.41834548 744.52204994 143.78393555 741.51611328 C145.95216592 740.26882764 148.11902286 739.01914859 150.28393555 737.76611328 C215.28393555 700.26611328 215.28393555 700.26611328 218.5390625 698.38842773 C220.68895423 697.14792516 222.83853513 695.90688372 224.98779297 694.6652832 C230.05190034 691.74067946 235.11894456 688.82157561 240.19729614 685.92178345 C242.58930672 684.55547456 244.97953263 683.18606042 247.36962891 681.81640625 C249.05222517 680.85390314 250.73738391 679.89588397 252.42260742 678.93798828 C253.44547852 678.35146484 254.46834961 677.76494141 255.5222168 677.16064453 C256.41980713 676.64864502 257.31739746 676.13664551 258.2421875 675.60913086 C262.77875324 672.76587935 266.04926332 670.17444064 268.6237793 665.43798828 C269.37087158 664.0867688 269.37087158 664.0867688 270.13305664 662.70825195 C270.65722168 661.73734619 271.18138672 660.76644043 271.72143555 659.76611328 C272.87739183 657.67278335 274.03499593 655.58036267 275.1940918 653.48876953 C275.78722168 652.41385254 276.38035156 651.33893555 276.99145508 650.23144531 C279.80786098 645.17940695 282.73069119 640.19140054 285.65893555 635.20361328 C292.4542154 623.59753257 299.17984102 611.9521722 305.89282227 600.29833984 C309.02073703 594.86951386 312.15252003 589.44292047 315.28393555 584.01611328 C316.53395434 581.84945745 317.78395433 579.68279078 319.03393555 577.51611328 C326.53393552 564.51611332 326.53393552 564.51611332 328.41162109 561.26147461 C329.65268808 559.11028104 330.89373648 556.95907673 332.13476562 554.80786133 C335.04891899 549.75648329 337.96325373 544.70521018 340.87826538 539.65432739 C341.91067032 537.8654441 342.94301511 536.07652611 343.9753418 534.28759766 C345.27079503 532.04273692 346.56636125 529.79794138 347.86206055 527.55322266 C348.44858398 526.53679687 349.03510742 525.52037109 349.6394043 524.47314453 C350.40740356 523.14246948 350.40740356 523.14246948 351.19091797 521.78491211 C351.71661377 520.8712085 352.24230957 519.95750488 352.78393555 519.01611328 C353.4649275 517.96510374 354.14591946 516.9140942 354.84754753 515.83123589 C357.00800741 512.0266596 357.37224816 508.52709147 357.35916138 504.20535278 C357.37910481 503.07127827 357.37910481 503.07127827 357.39945114 501.91429317 C357.4386272 499.39616474 357.44956506 496.87875009 357.46020508 494.36035156 C357.48201333 492.54767017 357.50535869 490.73500672 357.53012085 488.92236328 C357.59103083 484.00393839 357.62515145 479.08570048 357.65055323 474.1669755 C357.66676591 471.08302822 357.68712982 467.9991333 357.70858383 464.91521835 C357.77403389 455.2354861 357.82180825 445.55588292 357.84621155 435.87595952 C357.87460583 424.7614424 357.96195796 413.64949057 358.10121453 402.53582203 C358.20548996 393.91112411 358.25461357 385.28714642 358.26385581 376.66182888 C358.270593 371.52754214 358.29934037 366.39584733 358.38641739 361.26224136 C358.75612105 338.24111578 358.62608689 320.50194472 344.47024155 301.34234238 C341.98236297 297.91035819 339.92838974 294.26472616 337.84643555 290.57861328 C337.05246353 289.23314598 336.25589405 287.88920538 335.45581055 286.54736328 C332.12391647 280.91743473 328.86245882 275.24692158 325.59643555 269.57861328 C324.95843018 268.47138916 324.3204248 267.36416504 323.66308594 266.22338867 C322.35504078 263.95274261 321.04718107 261.6819897 319.73950195 259.41113281 C316.59061501 253.94441348 313.43710291 248.48036441 310.28393555 243.01611328 C309.03391205 240.84946017 307.78391208 238.68279349 306.53393555 236.51611328 C305.60581055 234.90736328 305.60581055 234.90736328 304.65893555 233.26611328 C299.03393555 223.51611328 299.03393555 223.51611328 297.15722656 220.26293945 C295.91316763 218.10671115 294.66886612 215.95062279 293.42431641 213.79467773 C290.20636782 208.21945846 286.99310731 202.64160236 283.7878418 197.05908203 C280.65848762 191.60983533 277.51059063 186.17164726 274.35375977 180.73828125 C273.00854144 178.40559317 271.6890773 176.0614504 270.3815918 173.70751953 C266.37031904 166.70963577 262.89924538 162.76567489 255.78393555 159.01611328 C254.538801 158.32505846 253.29546737 157.63075367 252.0534668 156.93408203 C249.83723298 155.69440198 247.61874531 154.45967457 245.39331055 153.23657227 C239.00346119 149.72433465 232.69824139 146.07992855 226.40893555 142.39111328 C217.5665822 137.20788549 208.68979996 132.08908947 199.78393555 127.01611328 C190.10893192 121.50381472 180.47110964 115.93186496 170.86206055 110.30517578 C163.19819624 105.82445088 155.4970944 101.4111406 147.78393555 97.01611328 C112.15203634 76.7111775 112.15203634 76.7111775 107.60888195 73.45923042 C104.11086092 71.67227471 101.09707653 71.56265699 97.25837708 71.55441284 C96.13404952 71.5346927 96.13404952 71.5346927 94.98700827 71.51457417 C92.47894539 71.47456051 89.97119841 71.45590811 87.46289062 71.4375 C85.66198317 71.41378198 83.86108979 71.3889742 82.06021118 71.36315918 C76.14143427 71.28456465 70.22259513 71.23853527 64.3034668 71.19580078 C62.25694942 71.17970989 60.21043236 71.16357735 58.16391563 71.14740372 C49.63435908 71.08248406 41.10481915 71.02630564 32.57507801 70.99253654 C20.40872771 70.94403793 8.24528558 70.8451022 -3.91996878 70.673334 C-12.50129425 70.55637674 -21.08185225 70.49853639 -29.66395265 70.48277485 C-34.77338456 70.47191466 -39.8797149 70.43698595 -44.98827171 70.33846664 C-68.61466425 69.90512657 -85.97222736 70.53333512 -105.4284153 85.03091812 Z " fill="#D9DBDF" transform="translate(988.216064453125,331.98388671875)"/>
<path d="M0 0 C114.18 0 228.36 0 346 0 C346 49.17 346 98.34 346 149 C231.82 149 117.64 149 0 149 C0 99.83 0 50.66 0 0 Z " fill="#2A3141" transform="translate(920,676)"/>
<path d="M0 0 C4.58487943 2.55739506 8.91472915 5.28151405 13.25 8.25 C31.68885804 20.37179512 52.9961912 26.23955587 74.9375 26.0625 C76.00291016 26.05798828 77.06832031 26.05347656 78.16601562 26.04882812 C80.77740291 26.03711787 83.38867124 26.02071724 86 26 C86.04667749 34.36352701 86.0820468 42.7269981 86.10362434 51.09062386 C86.113989 54.97566508 86.12801149 58.86061612 86.15087891 62.74560547 C86.17287213 66.5063145 86.18462337 70.26693769 86.18975449 74.02770615 C86.19340339 75.45076724 86.200526 76.87382453 86.21146011 78.2968483 C86.30838755 91.45452178 84.89200393 104.05412621 81.375 116.75 C80.9869519 118.15088867 80.9869519 118.15088867 80.59106445 119.58007812 C70.40833678 154.85542086 46.48273545 182.13997932 14.77783203 200.02050781 C3.71139678 206.11753311 3.71139678 206.11753311 -0.33203125 205.83984375 C-3.91763865 204.71113864 -7.22015259 203.13461741 -10.5625 201.4375 C-11.27067871 201.07817383 -11.97885742 200.71884766 -12.70849609 200.34863281 C-24.77830357 194.10797824 -34.95540533 186.0524947 -45 177 C-45.68964844 176.38382813 -46.37929688 175.76765625 -47.08984375 175.1328125 C-63.66971223 159.45020749 -74.23507937 137.69379831 -80.3125 116 C-80.55500488 115.14728516 -80.79750977 114.29457031 -81.04736328 113.41601562 C-84.51754444 100.33968636 -85.30262953 87.12437992 -85.1953125 73.65625 C-85.19156644 72.26664436 -85.18872705 70.87703602 -85.18673706 69.48742676 C-85.1792256 65.8905259 -85.15969034 62.29379552 -85.1373291 58.69696045 C-85.11659577 55.00242415 -85.10767759 51.30785938 -85.09765625 47.61328125 C-85.07642782 40.40877779 -85.04245025 33.20441308 -85 26 C-83.90645454 26.01276474 -83.90645454 26.01276474 -82.79081726 26.02578735 C-79.42697507 26.05996168 -76.06316961 26.08083042 -72.69921875 26.1015625 C-70.97971008 26.12198608 -70.97971008 26.12198608 -69.22546387 26.14282227 C-44.32891212 26.25749195 -20.91737252 18.43701253 -2 2 C-1.34 1.34 -0.68 0.68 0 0 Z " fill="#8E6348" transform="translate(818,647)"/>
<path d="M0 0 C114.18 0 228.36 0 346 0 C346 49.17 346 98.34 346 149 C231.82 149 117.64 149 0 149 C0 99.83 0 50.66 0 0 Z M6 5 C6 42.62 6 80.24 6 119 C116.22 119 226.44 119 340 119 C340 81.38 340 43.76 340 5 C229.78 5 119.56 5 6 5 Z " fill="#D6D8DD" transform="translate(920,676)"/>
<path d="M0 0 C2.6908148 3.23266975 4.93884808 6.42777197 6.9609375 10.11328125 C7.50741943 11.10126709 8.05390137 12.08925293 8.61694336 13.10717773 C9.19710205 14.16493408 9.77726074 15.22269043 10.375 16.3125 C15.1384779 24.90925009 19.96600189 33.45925062 24.9375 41.9375 C30.70728554 51.77906105 36.42481657 61.64915244 42.11499023 71.53686523 C43.0074646 73.08676147 43.0074646 73.08676147 43.91796875 74.66796875 C44.44156982 75.57828857 44.9651709 76.4886084 45.50463867 77.42651367 C46.91561316 79.97897614 46.91561316 79.97897614 48.57217407 82.05737305 C50.61803384 86.27371482 50.39555628 90.02833339 50.34057617 94.65551758 C50.34123329 96.10501801 50.34123329 96.10501801 50.34190369 97.58380127 C50.33981731 100.77091834 50.31649294 103.95750632 50.29296875 107.14453125 C50.28737227 109.35698662 50.28310242 111.56944571 50.28010559 113.78190613 C50.26866097 119.60002946 50.23919683 125.41792749 50.20599365 131.23596191 C50.17528468 137.17485507 50.16159847 143.11378468 50.14648438 149.05273438 C50.11432697 160.70192181 50.06313503 172.35094216 50 184 C43.61070707 181.51326006 37.8843024 177.99100971 32 174.5 C31.08627121 173.95844269 31.08627121 173.95844269 30.15408325 173.40594482 C1.55739708 156.39791789 -17.89031633 134.30802791 -27 102 C-27.24621094 101.13890625 -27.49242187 100.2778125 -27.74609375 99.390625 C-36.32744695 62.22448836 -18.60038773 30.38489619 0 0 Z " fill="#2A3141" transform="translate(594,760)"/>
<path d="M0 0 C4.39384068 3.88947787 6.86348078 9.38132651 9.73266602 14.42016602 C10.79000659 16.27308185 11.86017104 18.11811891 12.93164062 19.96289062 C19.02329311 30.55133469 24.51224586 41.4091563 27.3125 53.375 C27.77076172 55.27378906 27.77076172 55.27378906 28.23828125 57.2109375 C33.80563189 84.90493814 28.48923917 112.56245609 12.99609375 136.1796875 C-3.03532193 158.83072883 -24.50560438 171.80137502 -49 184 C-49.35091049 171.54196156 -49.61573294 159.08513848 -49.77718258 146.62312508 C-49.85476025 140.83321073 -49.95956233 135.04672823 -50.1315918 129.25878906 C-51.52228937 81.2016804 -51.52228937 81.2016804 -35.99555969 61.66136169 C-32.31847347 56.75744604 -29.47621415 51.34652039 -26.5 46 C-25.26762022 43.85617408 -24.032341 41.71400984 -22.79296875 39.57421875 C-22.17599121 38.50478027 -21.55901367 37.4353418 -20.92333984 36.33349609 C-19.25096329 33.43496482 -17.57838453 30.53655044 -15.90567017 27.63821411 C-14.87326522 25.84933082 -13.84092044 24.06041283 -12.80859375 22.27148438 C-11.51314052 20.02662364 -10.2175743 17.7818281 -8.921875 15.53710938 C-5.93692086 10.36428226 -2.95754683 5.18854991 0 0 Z " fill="#2A3141" transform="translate(1404,760)"/>
<path d="M0 0 C0.66 0 1.32 0 2 0 C2.35091049 12.45803844 2.61573294 24.91486152 2.77718258 37.37687492 C2.85476025 43.16678927 2.95956233 48.95327177 3.1315918 54.74121094 C4.52228937 102.7983196 4.52228937 102.7983196 -11.00444031 122.33863831 C-14.68152653 127.24255396 -17.52378585 132.65347961 -20.5 138 C-21.73237978 140.14382592 -22.967659 142.28599016 -24.20703125 144.42578125 C-24.82400879 145.49521973 -25.44098633 146.5646582 -26.07666016 147.66650391 C-27.74903671 150.56503518 -29.42161547 153.46344956 -31.09432983 156.36178589 C-32.12673478 158.15066918 -33.15907956 159.93958717 -34.19140625 161.72851562 C-35.48685948 163.97337636 -36.7824257 166.2181719 -38.078125 168.46289062 C-41.06307914 173.63571774 -44.04245317 178.81145009 -47 184 C-49.74547931 181.54351851 -51.35652379 178.86699402 -53.14453125 175.66015625 C-54.03688477 174.06397461 -54.03688477 174.06397461 -54.94726562 172.43554688 C-55.87055664 170.76588867 -55.87055664 170.76588867 -56.8125 169.0625 C-57.71838867 167.44504883 -57.71838867 167.44504883 -58.64257812 165.79492188 C-73.93666666 138.31824398 -82.80996912 109.33742134 -74 78 C-62.56263584 40.42654221 -36.07732032 20.77787591 -3.27807617 2.33178711 C-1.10750462 1.19202869 -1.10750462 1.19202869 0 0 Z " fill="#2A3141" transform="translate(642,556)"/>
<path d="M0 0 C5.77011037 2.24424575 10.94309896 5.34407259 16.25366211 8.49243164 C18.02860111 9.54244617 19.80986002 10.58105909 21.59179688 11.61914062 C47.50703379 26.85518377 67.69809096 48.52220704 76 78 C85.61992694 115.60516895 72.40380467 146.46287966 53.68237305 178.40649414 C52.26041847 180.59854515 50.93747124 182.27086695 49 184 C48.6282666 183.33170166 48.2565332 182.66340332 47.87353516 181.97485352 C38.54113087 165.20215644 38.54113087 165.20215644 28.90087891 148.60571289 C24.43104501 141.06907128 20.06889928 133.47070161 15.70336914 125.87329102 C15.11031982 124.84260498 14.51727051 123.81191895 13.90625 122.75 C13.04420708 121.21368423 13.04420708 121.21368423 12.16474915 119.64633179 C10.721111 117.13764604 9.16034768 114.78705776 7.46536255 112.44178772 C-0.90944412 100.40754398 -1.33993385 90.01626292 -0.9765625 75.68359375 C-0.95786324 73.48831945 -0.94365138 71.29300283 -0.9336853 69.09767151 C-0.89587974 63.37725363 -0.79798806 57.65945933 -0.68664551 51.94006348 C-0.58352262 46.08084589 -0.53850193 40.22119564 -0.48828125 34.36132812 C-0.38170066 22.90641239 -0.21150099 11.45342608 0 0 Z " fill="#2A3141" transform="translate(1355,556)"/>
<path d="M0 0 C2.01235974 0.01507932 4.02473045 0.02876196 6.03710938 0.04101562 C10.92084849 0.07375173 15.80405023 0.12535338 20.6875 0.1875 C19.32277177 3.82010345 17.6894884 7.09711407 15.73828125 10.44921875 C15.1453125 11.47208984 14.55234375 12.49496094 13.94140625 13.54882812 C13.30074219 14.64646484 12.66007813 15.74410156 12 16.875 C11.3251662 18.03690348 10.65069344 19.19901671 9.9765625 20.36132812 C8.57642911 22.7747404 7.17474981 25.1872446 5.77197266 27.59912109 C3.18109721 32.05615893 0.60563398 36.52204918 -1.96850586 40.98876953 C-3.19832275 43.1221021 -4.42960705 45.25458942 -5.66235352 47.38623047 C-8.58801257 52.44693364 -11.50281674 57.51304572 -14.38104248 62.6008606 C-15.73569433 64.99397214 -17.09625513 67.38369932 -18.45727539 69.77319336 C-19.41153349 71.45425625 -20.35725775 73.1401544 -21.30273438 74.82617188 C-26.9678002 84.76038123 -32.65376743 89.23495982 -42.625 94.625 C-44.89424329 95.87315802 -47.16244787 97.12320608 -49.4296875 98.375 C-50.58049805 99.00921875 -51.73130859 99.6434375 -52.91699219 100.296875 C-58.07102237 103.16664849 -63.16308882 106.13829894 -68.25 109.125 C-78.09120013 114.89539501 -87.96165768 120.61231958 -97.84936523 126.30249023 C-99.39926147 127.1949646 -99.39926147 127.1949646 -100.98046875 128.10546875 C-101.89078857 128.62906982 -102.8011084 129.1526709 -103.73901367 129.69213867 C-105.51706523 130.72530116 -107.2768965 131.79023695 -109.02075195 132.88012695 C-111.3125 134.1875 -111.3125 134.1875 -113.3125 134.1875 C-113.36239487 128.4257937 -113.39845113 122.66421658 -113.42236328 116.90234375 C-113.43234485 114.9472433 -113.44593487 112.99215748 -113.46337891 111.03710938 C-113.64409646 90.24396038 -113.64409646 90.24396038 -111.3125 80.1875 C-111.05210937 78.97578125 -110.79171875 77.7640625 -110.5234375 76.515625 C-103.38309291 50.22314118 -85.85648019 27.72478178 -62.328125 14.03271484 C-53.64322539 9.22951092 -44.91433198 5.74614011 -35.3125 3.1875 C-34.42949219 2.91873047 -33.54648437 2.64996094 -32.63671875 2.37304688 C-21.85518772 -0.6019399 -11.09510578 -0.14549458 0 0 Z " fill="#2A3140" transform="translate(767.3125,403.8125)"/>
<path d="M0 0 C5.65180545 -0.10049716 11.30306672 -0.17221858 16.95556641 -0.21972656 C18.8697213 -0.23957563 20.78381782 -0.26666402 22.69775391 -0.30175781 C53.10176475 -0.84440158 80.71815965 7.83225166 103 29 C120.37344418 45.97405466 133.20794905 69.83933034 134.08654785 94.42150879 C134.11454961 96.97042871 134.11273941 99.51738192 134.09765625 102.06640625 C134.09553383 103.44565529 134.09553383 103.44565529 134.09336853 104.85276794 C134.08782312 107.75604671 134.07528117 110.65924501 134.0625 113.5625 C134.05747793 115.54492075 134.05291627 117.52734273 134.04882812 119.50976562 C134.03787164 124.3398742 134.02064542 129.16992351 134 134 C130.36367377 132.62551133 127.02935879 130.99565142 123.640625 129.09375 C122.61654541 128.52019775 121.59246582 127.94664551 120.53735352 127.35571289 C119.45252686 126.74332764 118.3677002 126.13094238 117.25 125.5 C115.55991821 124.54951782 115.55991821 124.54951782 113.83569336 123.57983398 C107.05430209 119.75534052 100.30704434 115.88046459 93.61328125 111.90478516 C88.17552053 108.67742188 82.70122707 105.51659245 77.21655273 102.36962891 C74.91675798 101.04634395 72.62064168 99.71664413 70.32836914 98.38037109 C63.65274104 94.47101778 63.65274104 94.47101778 56.796875 90.89453125 C47.28904938 85.9716405 43.95848672 78.89524594 39.36914062 69.66015625 C36.88159516 64.827008 34.07884821 60.17724703 31.3125 55.5 C30.11610079 53.46027243 28.92080808 51.41989549 27.7265625 49.37890625 C27.11844727 48.34008301 26.51033203 47.30125977 25.88378906 46.23095703 C21.98805077 39.54923067 18.14229838 32.83854767 14.28808594 26.1328125 C10.42646823 19.42870036 6.51620703 12.75935494 2.4362793 6.18530273 C0 2.21132765 0 2.21132765 0 0 Z " fill="#293040" transform="translate(1211,404)"/>
<path d="M0 0 C0.10013072 6.11567607 0.17205462 12.23085759 0.21972656 18.34716797 C0.23963461 20.42049489 0.26677111 22.49376724 0.30175781 24.56689453 C0.80940427 55.45867436 -9.04510838 82.16480912 -30.4375 104.8125 C-45.01783368 118.56362039 -61.84918529 126.83651328 -81 132 C-81.76884521 132.20898926 -82.53769043 132.41797852 -83.32983398 132.63330078 C-93.25227896 134.86937247 -103.58101237 134.21477522 -113.6875 134.125 C-115.66080276 134.11495115 -117.63411046 134.10582867 -119.60742188 134.09765625 C-124.40507165 134.07579134 -129.20248036 134.04136616 -134 134 C-132.575794 130.19037936 -130.82091117 126.75596032 -128.796875 123.23046875 C-127.83189087 121.5451001 -127.83189087 121.5451001 -126.84741211 119.82568359 C-126.14840128 118.61288279 -125.44926061 117.40015681 -124.75 116.1875 C-124.0252852 114.92540022 -123.30075976 113.66319169 -122.57641602 112.40087891 C-117.50523755 103.57287447 -112.39311142 94.76866531 -107.24365234 85.98608398 C-104.10637402 80.63190922 -101.00146118 75.26131062 -97.93359375 69.8671875 C-96.91221351 68.07669664 -95.89046263 66.28641766 -94.86868286 64.49615479 C-93.89864832 62.79155614 -92.9354421 61.08307743 -91.97241211 59.37451172 C-91.38081299 58.3382666 -90.78921387 57.30202148 -90.1796875 56.234375 C-89.40214111 54.86104004 -89.40214111 54.86104004 -88.60888672 53.45996094 C-85.84165233 49.22890575 -82.69678114 46.61297684 -78.34375 44.109375 C-76.95567139 43.30512085 -76.95567139 43.30512085 -75.53955078 42.48461914 C-74.03497314 41.62598267 -74.03497314 41.62598267 -72.5 40.75 C-71.44409668 40.1408374 -70.38819336 39.5316748 -69.30029297 38.90405273 C-66.45348754 37.26419457 -63.60342739 35.63022757 -60.75085449 34.00042725 C-59.01727391 33.0098702 -57.28451154 32.01788164 -55.55175781 31.02587891 C-50.32547205 28.0340411 -45.0970237 25.04603643 -39.8658905 22.06268311 C-32.62379267 17.93201764 -25.3910936 13.78526855 -18.16766357 9.62203979 C-16.47367061 8.645844 -14.77907806 7.6706889 -13.08447266 6.69555664 C-12.06530762 6.10766357 -11.04614258 5.51977051 -9.99609375 4.9140625 C-9.10075928 4.3979541 -8.2054248 3.8818457 -7.28295898 3.35009766 C-1.61808318 0 -1.61808318 0 0 0 Z " fill="#293040" transform="translate(1345,962)"/>
<path d="M0 0 C3.54434427 1.34455698 6.80799193 2.91228344 10.11328125 4.765625 C11.10126709 5.31855225 12.08925293 5.87147949 13.10717773 6.44116211 C14.16493408 7.03807861 15.22269043 7.63499512 16.3125 8.25 C17.42117432 8.87334229 18.52984863 9.49668457 19.67211914 10.13891602 C29.11354291 15.46414398 38.48218631 20.91037658 47.83203125 26.39453125 C52.23464529 28.97468446 56.6496277 31.53204005 61.07421875 34.07421875 C61.6645842 34.41361984 62.25494965 34.75302094 62.86320496 35.10270691 C65.72366667 36.74674789 68.58541004 38.38846343 71.44897461 40.02709961 C73.4612213 41.18313809 75.46915622 42.34673056 77.47167969 43.51953125 C79.45639126 44.68168758 81.4560105 45.81838965 83.4609375 46.9453125 C86.90897886 49.73557367 88.50962341 52.83890356 90.5 56.75 C91.36830472 58.38169557 92.23955718 60.01182489 93.11328125 61.640625 C93.57686035 62.51009766 94.04043945 63.37957031 94.51806641 64.27539062 C97.13157938 69.08046556 99.91516278 73.78536432 102.6875 78.5 C108.40978018 88.26209201 114.07316519 98.0566342 119.71191406 107.8671875 C123.57353177 114.57129964 127.48379297 121.24064506 131.5637207 127.81469727 C134 131.78867235 134 131.78867235 134 134 C128.68385131 134.05001081 123.36784418 134.08600398 118.05151367 134.10986328 C116.24875498 134.11982594 114.44601204 134.13340096 112.64331055 134.15087891 C102.23540996 134.24914845 92.24687631 134.09739711 82 132 C81.29319092 131.8644873 80.58638184 131.72897461 79.8581543 131.58935547 C54.79390089 126.45255886 31.49940495 109.86765161 17.17626953 88.82177734 C3.0525655 66.94733162 -0.35467111 45.81316247 -0.125 20.1875 C-0.11494637 18.22331187 -0.10582475 16.25911875 -0.09765625 14.29492188 C-0.07584026 9.52982221 -0.04144282 4.76496772 0 0 Z " fill="#293040" transform="translate(654,962)"/>
<path d="M0 0 C1.67449219 0.5259375 1.67449219 0.5259375 3.3828125 1.0625 C18.82636507 6.52655791 33.01325556 15.61495546 47 24 C44.07370751 27.17440814 41.15654511 29.2534503 37.3984375 31.36328125 C36.28178711 31.99508301 35.16513672 32.62688477 34.01464844 33.27783203 C33.42228394 33.6089801 32.82991943 33.94012817 32.21960449 34.28131104 C30.34132225 35.33132687 28.46750725 36.38893659 26.59472656 37.44873047 C24.00086572 38.91634857 21.405637 40.38150271 18.80957031 41.84521484 C13.10181751 45.06828706 7.42537193 48.34529071 1.75 51.625 C0.69925293 52.23142334 -0.35149414 52.83784668 -1.43408203 53.46264648 C-10.17710171 58.51310834 -18.90021338 63.59748299 -27.61425781 68.69775391 C-28.55624023 69.24866699 -29.49822266 69.79958008 -30.46875 70.3671875 C-31.29826172 70.85300293 -32.12777344 71.33881836 -32.98242188 71.83935547 C-35.93867528 73.53998817 -37.60418256 74.12455167 -40.99893188 74.12025452 C-41.83468246 74.12162918 -42.67043304 74.12300385 -43.5315094 74.12442017 C-44.90930824 74.11902725 -44.90930824 74.11902725 -46.31494141 74.11352539 C-47.28083694 74.11367142 -48.24673248 74.11381744 -49.24189758 74.1139679 C-52.44514181 74.11326937 -55.64832839 74.10547978 -58.8515625 74.09765625 C-61.06830819 74.09579186 -63.28505429 74.09436805 -65.50180054 74.09336853 C-71.34453463 74.08954504 -77.18724397 74.07971617 -83.02996826 74.06866455 C-88.98872544 74.05844682 -94.9474866 74.05387013 -100.90625 74.04882812 C-112.60417756 74.03809377 -124.30208672 74.02101935 -136 74 C-133.58956559 67.83062058 -130.30273913 62.22873047 -127 56.5 C-126.66230591 55.91419159 -126.32461182 55.32838318 -125.97668457 54.724823 C-111.1008753 29.03052371 -90.70700794 8.13595005 -61.5625 -0.375 C-59.38282238 -0.94733253 -57.19452169 -1.4875221 -55 -2 C-54.3603833 -2.17515137 -53.7207666 -2.35030273 -53.06176758 -2.53076172 C-36.26441561 -6.84310148 -16.43618474 -5.22222808 0 0 Z " fill="#293040" transform="translate(942,320)"/>
<path d="M0 0 C12.47542964 -0.32735894 24.94980456 -0.57461031 37.4286871 -0.72537041 C43.22624017 -0.79780706 49.02081265 -0.89569035 54.81665039 -1.05615234 C103.06731949 -2.35687208 103.06731949 -2.35687208 121.51702881 12.14263916 C126.04266936 15.52799762 131.02052861 18.16880865 135.9375 20.9375 C137.90833966 22.08757231 139.87734513 23.24079888 141.84375 24.3984375 C148.52596978 28.31373294 155.22954093 32.19155459 161.9375 36.0625 C163.0092749 36.68181396 164.0810498 37.30112793 165.18530273 37.93920898 C171.09409029 41.3473174 177.02355706 44.7118701 183 48 C183 48.66 183 49.32 183 50 C179.25461565 52.17613677 175.50484301 54.34446629 171.7512207 56.50634766 C170.48085002 57.23935842 169.21159965 57.97431503 167.94360352 58.71142578 C156.96294796 65.09178291 145.88793139 71.08632126 133.6875 74.8125 C133.05005859 75.01552734 132.41261719 75.21855469 131.75585938 75.42773438 C123.12491614 78.07199706 114.69497471 78.18211795 105.75 78.1875 C104.16638672 78.20586914 104.16638672 78.20586914 102.55078125 78.22460938 C72.89645387 78.27905428 48.55484845 65.48535464 27.9140625 44.921875 C19.79182714 36.25387679 0 11.91979737 0 0 Z " fill="#293040" transform="translate(806,1106)"/>
<path d="M0 0 C14.88265052 10.50295839 25.90871921 22.71928401 35.30078125 38.2265625 C36.12594238 39.5880542 36.12594238 39.5880542 36.96777344 40.97705078 C38.77523992 43.97162031 40.57178845 46.97241179 42.36328125 49.9765625 C43.24052856 51.44258911 43.24052856 51.44258911 44.13549805 52.93823242 C44.94627808 54.31072144 44.94627808 54.31072144 45.7734375 55.7109375 C46.26078369 56.53303711 46.74812988 57.35513672 47.25024414 58.20214844 C48.30078125 60.2265625 48.30078125 60.2265625 48.30078125 62.2265625 C35.82535161 62.55392144 23.35097669 62.80117281 10.87209415 62.95193291 C5.07454108 63.02436956 -0.7200314 63.12225285 -6.51586914 63.28271484 C-54.96903952 64.58934781 -54.96903952 64.58934781 -73.49757385 49.92315674 C-76.83978957 47.34763516 -80.46143321 45.34366415 -84.13671875 43.2890625 C-85.46823244 42.50352619 -86.79789911 41.71484361 -88.125 40.921875 C-93.99324061 37.44826162 -99.91301503 34.06382249 -105.82421875 30.6640625 C-121.13266252 21.84101279 -121.13266252 21.84101279 -127.76171875 17.9140625 C-128.36838379 17.55948975 -128.97504883 17.20491699 -129.60009766 16.83959961 C-133.58213651 14.46072698 -133.58213651 14.46072698 -134.69921875 12.2265625 C-95.58900983 -10.5403036 -95.58900983 -10.5403036 -76.69921875 -14.7734375 C-75.93287109 -14.9492334 -75.16652344 -15.1250293 -74.37695312 -15.30615234 C-49.3580507 -19.67214243 -21.22433238 -13.94478568 0 0 Z " fill="#293040" transform="translate(1144.69921875,331.7734375)"/>
<path d="M0 0 C2.20243752 0.0130765 4.40489557 0.02303096 6.60736084 0.03001404 C12.36832159 0.05657771 18.12802172 0.12519915 23.88848877 0.20294189 C29.78095452 0.27490426 35.67362652 0.30659579 41.56640625 0.34179688 C53.10211248 0.41658157 64.63688839 0.53585288 76.171875 0.68359375 C75.06914087 2.90615911 73.96454539 5.12776695 72.85888672 7.34887695 C72.39569283 8.28316906 72.39569283 8.28316906 71.92314148 9.23633575 C69.26085511 14.57853155 66.38119762 19.75997506 63.296875 24.87109375 C62.7814917 25.72550049 62.2661084 26.57990723 61.73510742 27.46020508 C57.7023045 34.03359257 53.41756519 40.00635683 48.171875 45.68359375 C47.45644531 46.46734375 46.74101563 47.25109375 46.00390625 48.05859375 C28.61579345 66.27764291 2.99636103 78.08781048 -22.1875 78.95703125 C-51.30062914 79.52729656 -71.09608396 71.59849928 -96.015625 57.24609375 C-97.08643311 56.63064697 -98.15724121 56.0152002 -99.26049805 55.38110352 C-100.73836792 54.51183228 -100.73836792 54.51183228 -102.24609375 53.625 C-103.13063232 53.10623291 -104.0151709 52.58746582 -104.92651367 52.05297852 C-105.55404541 51.60108154 -106.18157715 51.14918457 -106.828125 50.68359375 C-106.828125 50.02359375 -106.828125 49.36359375 -106.828125 48.68359375 C-106.34794922 48.42368652 -105.86777344 48.1637793 -105.37304688 47.89599609 C-94.25291676 41.86256708 -83.25608417 35.64841742 -72.34472656 29.24536133 C-63.14338774 23.85053747 -53.88803837 18.55415213 -44.61914062 13.27661133 C-43.51763672 12.64907959 -42.41613281 12.02154785 -41.28125 11.375 C-39.77152141 10.51634504 -38.2602661 9.659946 -36.73370361 8.83158875 C-34.71031234 7.66370043 -34.71031234 7.66370043 -32.55682373 5.91902161 C-22.4438404 -1.27121759 -11.94747998 -0.20937619 0 0 Z " fill="#293040" transform="translate(1116.828125,1105.31640625)"/>
<path d="M0 0 C0.33 0 0.66 0 1 0 C1 49.5 1 99 1 150 C-1.74305057 147.25694943 -3.1655512 145.18323306 -5.00390625 141.8359375 C-5.85940063 140.29015015 -5.85940063 140.29015015 -6.73217773 138.71313477 C-7.33618408 137.61155029 -7.94019043 136.50996582 -8.5625 135.375 C-9.83455252 133.07865933 -11.10799278 130.78308685 -12.3828125 128.48828125 C-13.00446289 127.3688916 -13.62611328 126.24950195 -14.26660156 125.09619141 C-16.43714882 121.21916601 -18.6679088 117.38216236 -20.9375 113.5625 C-24.98467218 106.73521659 -28.99501934 99.88716553 -32.97366333 93.01974487 C-33.97992491 91.28461612 -34.98980435 89.5515871 -35.99975586 87.81860352 C-36.61858643 86.74924561 -37.23741699 85.6798877 -37.875 84.578125 C-38.42929687 83.62325195 -38.98359375 82.66837891 -39.5546875 81.68457031 C-42.31195907 76.56312468 -42.31195907 76.56312468 -43 74 C-42.17993164 71.6418457 -42.17993164 71.6418457 -40.66015625 69.17578125 C-40.09941406 68.24314453 -39.53867187 67.31050781 -38.9609375 66.34960938 C-38.33445312 65.34736328 -37.70796875 64.34511719 -37.0625 63.3125 C-35.75021225 61.1425858 -34.43905192 58.97198946 -33.12890625 56.80078125 C-32.4445752 55.67881348 -31.76024414 54.5568457 -31.05517578 53.40087891 C-27.78199094 47.984454 -24.6452065 42.49137398 -21.5 37 C-20.25858893 34.84590652 -19.01639919 32.69226161 -17.7734375 30.5390625 C-15.84610407 27.19922438 -13.91889075 23.8593194 -11.99316406 20.51855469 C-10.04181566 17.13463933 -8.08367746 13.75467875 -6.125 10.375 C-5.52365234 9.33085938 -4.92230469 8.28671875 -4.30273438 7.2109375 C-3.75166016 6.2621875 -3.20058594 5.3134375 -2.6328125 4.3359375 C-2.14699707 3.49595215 -1.66118164 2.6559668 -1.16064453 1.79052734 C-0.58612549 0.90421631 -0.58612549 0.90421631 0 0 Z " fill="#2D3343" transform="translate(643,675)"/>
<path d="M0 0 C2.74305057 2.74305057 4.1655512 4.81676694 6.00390625 8.1640625 C6.57423584 9.1945874 7.14456543 10.2251123 7.73217773 11.28686523 C8.33618408 12.38844971 8.94019043 13.49003418 9.5625 14.625 C10.83455252 16.92134067 12.10799278 19.21691315 13.3828125 21.51171875 C14.31528809 23.19080322 14.31528809 23.19080322 15.26660156 24.90380859 C17.43714882 28.78083399 19.6679088 32.61783764 21.9375 36.4375 C25.98467218 43.26478341 29.99501934 50.11283447 33.97366333 56.98025513 C34.97992491 58.71538388 35.98980435 60.4484129 36.99975586 62.18139648 C37.61858643 63.25075439 38.23741699 64.3201123 38.875 65.421875 C39.42929688 66.37674805 39.98359375 67.33162109 40.5546875 68.31542969 C43.31195907 73.43687532 43.31195907 73.43687532 44 76 C43.17993164 78.3581543 43.17993164 78.3581543 41.66015625 80.82421875 C41.09925293 81.75709717 40.53834961 82.68997559 39.96044922 83.65112305 C39.33412598 84.65312744 38.70780273 85.65513184 38.0625 86.6875 C36.75284213 88.85352362 35.44428564 91.02021348 34.13671875 93.1875 C33.45270996 94.30898438 32.76870117 95.43046875 32.06396484 96.5859375 C28.74835758 102.07037705 25.5643635 107.62902538 22.375 113.1875 C21.75471924 114.26225586 21.13443848 115.33701172 20.49536133 116.44433594 C17.47135836 121.6845141 14.46582746 126.93419096 11.4921875 132.203125 C10.94385254 133.1722583 10.39551758 134.1413916 9.83056641 135.13989258 C8.80508286 136.95500162 7.78367293 138.77242047 6.76708984 140.5925293 C6.31285645 141.39601807 5.85862305 142.19950684 5.390625 143.02734375 C4.99907227 143.72593506 4.60751953 144.42452637 4.20410156 145.14428711 C3 147 3 147 0 150 C0 100.5 0 51 0 0 Z " fill="#2C3343" transform="translate(1355,675)"/>
<path d="M0 0 C1.20085236 0.00539291 1.20085236 0.00539291 2.42596436 0.01089478 C3.26491745 0.01074875 4.10387054 0.01060272 4.96824646 0.01045227 C7.75487816 0.01115167 10.54144388 0.01894531 13.32806396 0.02676392 C15.25477563 0.028628 17.18148777 0.03005195 19.10820007 0.03105164 C24.18978169 0.03487758 29.27133491 0.04470851 34.35290527 0.05575562 C39.53407405 0.0659681 44.7152474 0.07054891 49.89642334 0.07559204 C60.07026397 0.08633071 70.24408348 0.10340804 80.41790771 0.12442017 C77.90196502 2.74487439 75.45039834 4.37276003 72.25384521 6.12832642 C71.22332031 6.69865601 70.19279541 7.2689856 69.13104248 7.8565979 C68.02945801 8.46060425 66.92787354 9.0646106 65.79290771 9.68692017 C63.49656704 10.95897268 61.20099457 12.23241294 58.90618896 13.50723267 C57.78679932 14.12888306 56.66740967 14.75053345 55.51409912 15.39102173 C51.63707999 17.56156548 47.7999552 19.79214476 43.98040771 22.06192017 C37.01042243 26.19795539 30.00285839 30.26557468 22.98040771 34.31192017 C21.87463379 34.94920044 20.76885986 35.58648071 19.62957764 36.24307251 C16.22598242 38.20403396 12.82198882 40.16430231 9.41790771 42.12442017 C5.04239982 44.64437312 0.66741325 47.16522759 -3.70709229 49.68692017 C-4.77097168 50.29986938 -5.83485107 50.9128186 -6.93096924 51.54434204 C-12.38756655 54.69153393 -17.83520215 57.85307934 -23.26959229 61.03848267 C-24.35095459 61.67197632 -25.43231689 62.30546997 -26.54644775 62.9581604 C-28.58850985 64.15585679 -30.62929315 65.35573738 -32.66851807 66.55825806 C-37.88903877 69.62065361 -43.13268706 72.48947246 -48.58209229 75.12442017 C-47.16604168 71.33923284 -45.42788163 67.92692695 -43.41412354 64.42520142 C-42.77547363 63.31104858 -42.13682373 62.19689575 -41.4788208 61.04898071 C-40.78418686 59.8448977 -40.08944124 58.64087911 -39.39459229 57.43692017 C-38.67681416 56.1881211 -37.95928852 54.93917687 -37.24200439 53.69009399 C-35.76033398 51.11139799 -34.2765719 48.53392247 -32.79107666 45.95742798 C-31.02327416 42.89115963 -29.25936256 39.82268203 -27.49729919 36.75311279 C-21.79493801 26.82034049 -16.09063882 16.88883652 -10.20709229 7.06192017 C-9.6619397 6.15059326 -9.6619397 6.15059326 -9.10577393 5.22085571 C-6.21336175 0.42789995 -5.70762327 0.01082228 0 0 Z " fill="#2B3241" transform="translate(805.5820922851563,403.8755798339844)"/>
<path d="M0 0 C11.1090185 -0.20864697 22.21757012 -0.36850247 33.3281498 -0.46630955 C38.4875375 -0.51325639 43.64558369 -0.57691451 48.80419922 -0.67895508 C53.78396116 -0.7768399 58.76243417 -0.83057649 63.74308395 -0.85389519 C65.64185254 -0.870509 67.54055148 -0.90295487 69.43877029 -0.95157051 C84.29184823 -1.31680108 84.29184823 -1.31680108 88.41455078 1.86135864 C90.00548525 4.19429201 91.0254488 6.35733317 92 9 C92.59651367 10.00546875 93.19302734 11.0109375 93.80761719 12.046875 C94.5447998 13.38492187 94.5447998 13.38492187 95.296875 14.75 C95.85769775 15.76151123 96.41852051 16.77302246 96.99633789 17.81518555 C97.86440063 19.3916687 97.86440063 19.3916687 98.75 21 C102.78747818 28.26936744 106.83061987 35.52917911 111.0625 42.6875 C111.44349854 43.33340088 111.82449707 43.97930176 112.21704102 44.64477539 C114.63520774 48.73002296 117.08412925 52.79612731 119.5390625 56.859375 C120.44579712 58.37011597 120.44579712 58.37011597 121.37084961 59.91137695 C122.56529244 61.90104486 123.76644728 63.88670151 124.97485352 65.86791992 C125.51295654 66.76615479 126.05105957 67.66438965 126.60546875 68.58984375 C127.33479614 69.79435181 127.33479614 69.79435181 128.07885742 71.02319336 C128.38283447 71.67553955 128.68681152 72.32788574 129 73 C128.67 73.66 128.34 74.32 128 75 C114.63359843 67.38973613 101.27286875 59.77262446 88 52 C79.36503905 46.94366068 70.69385747 41.95406984 62 37 C51.28029015 30.89029995 40.59993335 24.71653342 29.953125 18.48046875 C25.70070666 15.98990918 21.4389189 13.51619778 17.171875 11.05078125 C16.05586914 10.40447754 14.93986328 9.75817383 13.79003906 9.09228516 C11.63219591 7.84299069 9.4727423 6.59647287 7.31152344 5.35302734 C6.3527832 4.79695801 5.39404297 4.24088867 4.40625 3.66796875 C3.55353516 3.17578857 2.70082031 2.6836084 1.82226562 2.17651367 C1.22091797 1.78826416 0.61957031 1.40001465 0 1 C0 0.67 0 0.34 0 0 Z " fill="#2B3242" transform="translate(1113,404)"/>
<path d="M0 0 C7.2003122 3.47715727 14.11905811 7.30657529 21 11.375 C23.12726524 12.62427522 25.25488158 13.87295275 27.3828125 15.12109375 C29.01911621 16.08184814 29.01911621 16.08184814 30.68847656 17.06201172 C36.07000879 20.21142213 41.47195024 23.32519307 46.875 26.4375 C47.95394531 27.05931152 49.03289063 27.68112305 50.14453125 28.32177734 C52.33550936 29.58432523 54.52659019 30.84669488 56.71777344 32.10888672 C63.2235961 35.8573323 69.72644083 39.61094181 76.22973633 43.36376953 C81.75737281 46.55328795 87.28599381 49.74107821 92.81640625 52.92578125 C99.21457323 56.61091207 105.60892363 60.30258653 112 64 C112.9192627 64.53125488 113.83852539 65.06250977 114.78564453 65.60986328 C117.23461281 67.02730334 119.68045184 68.44995415 122.125 69.875 C122.83599854 70.28596924 123.54699707 70.69693848 124.27954102 71.12036133 C125.87006781 72.05173263 127.43822916 73.02117426 129 74 C129 74.33 129 74.66 129 75 C117.8909815 75.20864697 106.78242988 75.36850247 95.6718502 75.46630955 C90.5124625 75.51325639 85.35441631 75.57691451 80.19580078 75.67895508 C75.21603884 75.7768399 70.23756583 75.83057649 65.25691605 75.85389519 C63.35814746 75.870509 61.45944852 75.90295487 59.56122971 75.95157051 C44.70815177 76.31680108 44.70815177 76.31680108 40.58544922 73.13864136 C38.99451475 70.80570799 37.9745512 68.64266683 37 66 C36.40348633 64.99453125 35.80697266 63.9890625 35.19238281 62.953125 C34.70092773 62.06109375 34.20947266 61.1690625 33.703125 60.25 C33.14230225 59.23848877 32.58147949 58.22697754 32.00366211 57.18481445 C31.13559937 55.6083313 31.13559937 55.6083313 30.25 54 C26.21253568 46.73065751 22.17002533 39.47042132 17.9375 32.3125 C17.55577637 31.66659912 17.17405273 31.02069824 16.78076172 30.35522461 C14.96485062 27.29185827 13.1399264 24.23395274 11.31201172 21.17773438 C10.09901998 19.14901465 8.88768123 17.11930569 7.67797852 15.08862305 C6.49359965 13.10075899 5.30539971 11.11516561 4.11303711 9.13208008 C3.57815674 8.23384521 3.04327637 7.33561035 2.4921875 6.41015625 C2.01120605 5.60715088 1.53022461 4.80414551 1.03466797 3.97680664 C0 2 0 2 0 0 Z " fill="#2B3241" transform="translate(757,1021)"/>
<path d="M0 0 C0 3.59761961 -0.94713669 5.0490109 -2.7109375 8.1640625 C-3.29093506 9.1945874 -3.87093262 10.2251123 -4.46850586 11.28686523 C-5.09764893 12.38844971 -5.72679199 13.49003418 -6.375 14.625 C-7.01767822 15.76074463 -7.66035645 16.89648926 -8.32250977 18.06665039 C-12.18235796 24.86898808 -16.08836527 31.64282193 -20.08374023 38.36645508 C-22.70698303 42.78345045 -25.28684035 47.22399711 -27.84375 51.6796875 C-28.18072403 52.26639725 -28.51769806 52.85310699 -28.86488342 53.45759583 C-30.55041948 56.39301406 -32.23307381 59.33000087 -33.91186523 62.26928711 C-34.52747314 63.34186768 -35.14308105 64.41444824 -35.77734375 65.51953125 C-36.60093384 66.95969604 -36.60093384 66.95969604 -37.44116211 68.42895508 C-38.21278687 69.70162231 -38.21278687 69.70162231 -39 71 C-39.35730194 71.70366196 -39.71460388 72.40732391 -40.08273315 73.13230896 C-42.55462205 75.54028089 -44.47070816 75.47229153 -47.83093262 75.49768066 C-49.02099915 75.47610901 -49.02099915 75.47610901 -50.23510742 75.45410156 C-51.07435257 75.45468567 -51.91359772 75.45526978 -52.77827454 75.45587158 C-55.55442558 75.4530831 -58.32950512 75.42195563 -61.10546875 75.390625 C-63.02931634 75.38316531 -64.95317152 75.3774711 -66.87702942 75.37347412 C-71.94234165 75.35819635 -77.00719559 75.31889603 -82.07232666 75.2746582 C-87.240212 75.23375173 -92.40817133 75.21547299 -97.57617188 75.1953125 C-107.71764935 75.15240389 -117.85878658 75.0841266 -128 75 C-125.66374515 72.58285368 -123.47067772 70.98788425 -120.51953125 69.35546875 C-119.61549561 68.85096191 -118.71145996 68.34645508 -117.7800293 67.82666016 C-116.31110229 67.01527588 -116.31110229 67.01527588 -114.8125 66.1875 C-112.71014088 65.01314374 -110.60860294 63.8373164 -108.5078125 62.66015625 C-106.88601074 61.75160889 -106.88601074 61.75160889 -105.23144531 60.82470703 C-100.18669624 57.97607795 -95.18583672 55.05408593 -90.1875 52.125 C-72.23138167 41.61613315 -54.19715758 31.24502147 -36.12402344 20.93902588 C-24.03378072 14.04248494 -12.00707193 7.04023762 0 0 Z " fill="#2B3241" transform="translate(1241,1021)"/>
<path d="M0 0 C2.54174805 1.25244141 2.54174805 1.25244141 5.26171875 2.8515625 C6.79687134 3.74633301 6.79687134 3.74633301 8.36303711 4.65917969 C10.00864624 5.63226074 10.00864624 5.63226074 11.6875 6.625 C12.84404455 7.30185552 14.00103498 7.97794968 15.15844727 8.65332031 C17.56764492 10.059901 19.97488161 11.46975529 22.38085938 12.88183594 C28.04766957 16.20361511 33.74461678 19.47319117 39.4375 22.75 C41.57955828 23.98675197 43.7214878 25.22372696 45.86328125 26.4609375 C49.85603023 28.76601674 53.85347613 31.06257233 57.85546875 33.3515625 C59.19750366 34.12161621 59.19750366 34.12161621 60.56665039 34.90722656 C62.23207964 35.86271475 63.89915523 36.81534092 65.56811523 37.76464844 C67.39519777 38.81498153 69.20055608 39.90298961 71 41 C71 41.33 71 41.66 71 42 C21.83 42 -27.34 42 -78 42 C-72.3831238 37.50649904 -72.3831238 37.50649904 -69.41796875 35.9140625 C-68.41056641 35.36552612 -68.41056641 35.36552612 -67.3828125 34.8059082 C-66.65835938 34.4162085 -65.93390625 34.02650879 -65.1875 33.625 C-57.88948809 29.63446518 -50.67698222 25.51663187 -43.5 21.3125 C-42.50726074 20.7337915 -41.51452148 20.15508301 -40.49169922 19.55883789 C-35.53631775 16.66787071 -30.59149885 13.76119486 -25.66958618 10.81367493 C-23.2982934 9.39678452 -20.92023823 7.99150683 -18.54101562 6.58798218 C-16.84278312 5.58046617 -15.1537057 4.5575697 -13.46484375 3.53442383 C-12.43101562 2.92622803 -11.3971875 2.31803223 -10.33203125 1.69140625 C-9.42171143 1.14685791 -8.5113916 0.60230957 -7.57348633 0.04125977 C-4.4474898 -1.22355147 -3.16765015 -1.07437322 0 0 Z " fill="#2A3141" transform="translate(1003,352)"/>
<path d="M0 0 C49.17 0 98.34 0 149 0 C143.3831238 4.49350096 143.3831238 4.49350096 140.41796875 6.0859375 C139.74636719 6.45162842 139.07476563 6.81731934 138.3828125 7.1940918 C137.65835937 7.5837915 136.93390625 7.97349121 136.1875 8.375 C128.88948809 12.36553482 121.67698222 16.48336813 114.5 20.6875 C113.01089111 21.55556274 113.01089111 21.55556274 111.49169922 22.44116211 C106.53631775 25.33212929 101.59149885 28.23880514 96.66958618 31.18632507 C94.2982934 32.60321548 91.92023823 34.00849317 89.54101562 35.41201782 C87.84278312 36.41953383 86.1537057 37.4424303 84.46484375 38.46557617 C83.43101562 39.07377197 82.3971875 39.68196777 81.33203125 40.30859375 C80.42171143 40.85314209 79.5113916 41.39769043 78.57348633 41.95874023 C75.45918793 43.21881828 74.15538763 43.06459221 71 42 C68.6418457 40.83935547 68.6418457 40.83935547 66.17578125 39.3671875 C65.24290283 38.81595215 64.31002441 38.2647168 63.34887695 37.69677734 C62.34687256 37.09559082 61.34486816 36.4944043 60.3125 35.875 C58.14624719 34.59305041 55.97956562 33.31182511 53.8125 32.03125 C52.69101562 31.36609375 51.56953125 30.7009375 50.4140625 30.015625 C44.90325033 26.76210203 39.35858777 23.56790106 33.8125 20.375 C32.73991943 19.75665283 31.66733887 19.13830566 30.56225586 18.5012207 C20.39033914 12.64036559 10.19935928 6.81294453 0 1 C0 0.67 0 0.34 0 0 Z " fill="#2A3140" transform="translate(925,1106)"/>
<path d="M0 0 C0.33 0 0.66 0 1 0 C1.30169018 11.07407671 1.53242774 22.14717116 1.67355824 33.22452545 C1.7413105 38.36893693 1.83312439 43.51053086 1.98071289 48.65332031 C2.122357 53.62026931 2.19976665 58.58451637 2.23340416 63.55332947 C2.25735988 65.44508931 2.30414953 67.33670676 2.37449074 69.22731018 C2.80333963 81.23537861 2.80333963 81.23537861 1 86 C-2.90682683 90.05477808 -6.79554426 91.8348744 -12 94 C-14.17550084 95.22442967 -16.33802749 96.47250959 -18.48046875 97.75390625 C-20.71499347 99.0254647 -22.95070702 100.29493589 -25.1875 101.5625 C-27.630834 102.95202662 -30.07319891 104.34325327 -32.515625 105.734375 C-33.43927101 106.26004814 -33.43927101 106.26004814 -34.38157654 106.79634094 C-41.08083729 110.61088122 -47.76057808 114.45902715 -54.4375 118.3125 C-55.52635498 118.940354 -56.61520996 119.56820801 -57.73706055 120.21508789 C-63.27561217 123.38867314 -63.27561217 123.38867314 -68.69946289 126.75073242 C-69.83822876 127.36911987 -69.83822876 127.36911987 -71 128 C-71.66 127.67 -72.32 127.34 -73 127 C-65.0055857 112.60491316 -56.8882509 98.29619789 -48.5625 84.08984375 C-44.8678669 77.78429581 -41.21147319 71.45705564 -37.5625 65.125 C-36.62869507 63.50476929 -36.62869507 63.50476929 -35.67602539 61.85180664 C-34.41423174 59.66203666 -33.15259466 57.47217645 -31.89111328 55.28222656 C-28.76319852 49.85340058 -25.63141635 44.42680671 -22.5 39 C-21.26951242 36.86719836 -20.03904375 34.73438582 -18.80859375 32.6015625 C-12.5390625 21.734375 -6.26953125 10.8671875 0 0 Z " fill="#2A3141" transform="translate(1344,864)"/>
<path d="M0 0 C3.45493703 1.30416885 6.57769293 2.81507599 9.75390625 4.6953125 C10.67679443 5.23833008 11.59968262 5.78134766 12.55053711 6.34082031 C13.54448486 6.92959961 14.53843262 7.51837891 15.5625 8.125 C24.81673504 13.56808003 34.10778569 18.93780464 43.4375 24.25 C51.37645786 28.77443521 59.30787752 33.3102078 67.1875 37.9375 C67.88222412 38.34452148 68.57694824 38.75154297 69.29272461 39.17089844 C73.87394188 41.87394188 73.87394188 41.87394188 75 43 C75.09512944 45.67787973 75.12555279 48.32988869 75.11352539 51.00805664 C75.11367142 51.84700974 75.11381744 52.68596283 75.1139679 53.55033875 C75.1132685 56.33697044 75.10547485 59.12353616 75.09765625 61.91015625 C75.09579217 63.83686791 75.09436822 65.76358005 75.09336853 67.69029236 C75.08954259 72.77187397 75.07971166 77.8534272 75.06866455 82.93499756 C75.05845206 88.11616634 75.05387126 93.29733969 75.04882812 98.47851562 C75.03808946 108.65235625 75.02101213 118.82617577 75 129 C72.3461438 125.73363861 70.06458498 122.57848521 68.0390625 118.88671875 C67.49258057 117.89873291 66.94609863 116.91074707 66.38305664 115.89282227 C65.80289795 114.83506592 65.22273926 113.77730957 64.625 112.6875 C59.86151974 104.09074565 55.03383369 95.54084764 50.0625 87.0625 C45.20057843 78.76622879 40.36387464 70.45648544 35.5625 62.125 C34.94141357 61.04774658 34.32032715 59.97049316 33.68041992 58.8605957 C30.50948845 53.3591465 27.34176333 47.85586119 24.17578125 42.3515625 C22.90909379 40.15090372 21.64216876 37.95038167 20.375 35.75 C19.76205078 34.68547607 19.14910156 33.62095215 18.51757812 32.52416992 C13.69842081 24.17177306 8.80575565 15.8643061 3.85888672 7.58691406 C3.34986816 6.73194336 2.84084961 5.87697266 2.31640625 4.99609375 C1.86724854 4.24513428 1.41809082 3.4941748 0.95532227 2.72045898 C0 1 0 1 0 0 Z " fill="#2A3141" transform="translate(1270,507)"/>
<path d="M0 0 C2.71750766 3.34175928 5.02512966 6.58246698 7.1015625 10.359375 C7.66866943 11.38345459 8.23577637 12.40753418 8.82006836 13.46264648 C9.4156958 14.54747314 10.01132324 15.6322998 10.625 16.75 C14.65708274 24.02314293 18.69013149 31.28750712 22.9375 38.4375 C27.07341637 45.40755586 31.1412128 52.41501381 35.1875 59.4375 C35.82550537 60.54472412 36.46351074 61.65194824 37.12084961 62.79272461 C38.42889477 65.06337068 39.73675448 67.33412358 41.04443359 69.60498047 C43.57391981 73.99637064 46.10639505 78.38603187 48.6394043 82.77539062 C49.87439243 84.91575583 51.1089342 87.05637864 52.34301758 89.19726562 C55.27928399 94.29035459 58.2192768 99.38119246 61.17169189 104.4649353 C62.57068053 106.87434008 63.96767029 109.2849009 65.36450195 111.69555664 C66.35498071 113.40298982 67.3483594 115.10873972 68.34179688 116.81445312 C68.93798828 117.84376953 69.53417969 118.87308594 70.1484375 119.93359375 C70.67614746 120.84165771 71.20385742 121.74972168 71.74755859 122.68530273 C73 125 73 125 74 128 C69.46875604 126.34587599 65.38135943 124.10298274 61.1875 121.75 C60.40761719 121.31453857 59.62773438 120.87907715 58.82421875 120.43041992 C50.29897203 115.64579171 41.86799736 110.70015011 33.43359375 105.7578125 C28.87371291 103.08837192 24.30275399 100.43920836 19.72265625 97.8046875 C19.12218475 97.45917343 18.52171326 97.11365936 17.90304565 96.75767517 C14.97434438 95.07304309 12.04445879 93.39052833 9.11328125 91.71020508 C8.0665625 91.10845459 7.01984375 90.5067041 5.94140625 89.88671875 C4.54450562 89.08560669 4.54450562 89.08560669 3.11938477 88.26831055 C1 87 1 87 0 86 C-0.09512944 83.32212027 -0.12555279 80.67011131 -0.11352539 77.99194336 C-0.11367142 77.15299026 -0.11381744 76.31403717 -0.1139679 75.44966125 C-0.1132685 72.66302956 -0.10547485 69.87646384 -0.09765625 67.08984375 C-0.09579217 65.16313209 -0.09436822 63.23641995 -0.09336853 61.30970764 C-0.08954259 56.22812603 -0.07971166 51.1465728 -0.06866455 46.06500244 C-0.05845206 40.88383366 -0.05387126 35.70266031 -0.04882812 30.52148438 C-0.03808946 20.34764375 -0.02101213 10.17382423 0 0 Z " fill="#2A3141" transform="translate(654,864)"/>
<path d="M0 0 C0.99 0.495 0.99 0.495 2 1 C1.65445068 1.59087402 1.30890137 2.18174805 0.95288086 2.79052734 C-7.78499483 17.7373841 -16.46694474 32.71523739 -25.10888672 47.71777344 C-28.23680148 53.14659942 -31.36858448 58.57319281 -34.5 64 C-35.75001879 66.16665583 -37.00001878 68.3333225 -38.25 70.5 C-49.5 90 -60.75 109.5 -72 129 C-72.33 129 -72.66 129 -73 129 C-73.30169018 117.92592329 -73.53242774 106.85282884 -73.67355824 95.77547455 C-73.7413105 90.63106307 -73.83312439 85.48946914 -73.98071289 80.34667969 C-74.122357 75.37973069 -74.19976665 70.41548363 -74.23340416 65.44667053 C-74.25735988 63.55491069 -74.30414953 61.66329324 -74.37449074 59.77268982 C-74.80333963 47.76462139 -74.80333963 47.76462139 -73 43 C-69.09317317 38.94522192 -65.20445574 37.1651256 -60 35 C-57.82450095 33.77556714 -55.66197442 32.5274872 -53.51953125 31.24609375 C-51.28497591 29.97458911 -49.04926319 28.70511669 -46.8125 27.4375 C-44.98963079 26.40038993 -43.16733904 25.36227032 -41.34509277 24.32406616 C-40.10148357 23.61553457 -38.8577497 22.90722175 -37.6138916 22.1991272 C-30.94107152 18.39985315 -24.28034199 14.57979553 -17.625 10.75 C-16.54452393 10.1305249 -15.46404785 9.5110498 -14.35083008 8.87280273 C-9.45892689 6.05530678 -4.638499 3.21985154 0 0 Z " fill="#2A3141" transform="translate(727,507)"/>
<path d="M0 0 C2.29955466 0.9181416 3.78755626 2.1523345 5.62109375 3.80957031 C6.2346875 4.35742188 6.84828125 4.90527344 7.48046875 5.46972656 C7.939375 5.89125 8.39828125 6.31277344 8.87109375 6.74707031 C7.34547414 10.35467827 5.21053228 12.64433374 2.44067383 15.38867188 C1.52244339 16.30352356 0.60421295 17.21837524 -0.34184265 18.16094971 C-1.34766143 19.15322393 -2.35350621 20.14547179 -3.359375 21.13769531 C-4.39400933 22.16605149 -5.42812504 23.19492969 -6.46174622 24.2243042 C-9.18549081 26.93475383 -11.91473566 29.63959057 -14.64562988 32.34283447 C-18.99930968 36.65341325 -23.34643413 40.97057315 -27.69008827 45.29125214 C-29.19804477 46.78910842 -30.70943708 48.28342937 -32.22123718 49.77740479 C-36.87161299 54.39526294 -41.40571297 59.03882006 -45.64497375 64.03924561 C-48.00203749 66.75193752 -50.55750124 69.2383825 -53.12890625 71.74707031 C-56.15498097 70.40502198 -58.11483382 68.960949 -60.3359375 66.51660156 C-61.21668945 65.55850586 -61.21668945 65.55850586 -62.11523438 64.58105469 C-62.71787109 63.91396484 -63.32050781 63.246875 -63.94140625 62.55957031 C-65.13412062 61.25239699 -66.32812939 59.94640354 -67.5234375 58.64160156 C-68.11543945 57.99513672 -68.70744141 57.34867188 -69.31738281 56.68261719 C-71.6826032 54.15546527 -74.13621766 51.72493616 -76.59545898 49.28979492 C-78.40326266 47.47105405 -80.09405194 45.57628302 -81.75390625 43.62207031 C-83.77621573 41.25203341 -85.81522422 39.08066241 -88.12890625 36.99707031 C-90.12890625 34.74707031 -90.12890625 34.74707031 -90.0390625 32.93457031 C-88.76833215 29.88045444 -86.81777733 27.90698865 -84.56640625 25.49707031 C-83.74011719 24.60503906 -82.91382813 23.71300781 -82.0625 22.79394531 C-81.42441406 22.11847656 -80.78632812 21.44300781 -80.12890625 20.74707031 C-74.30815854 23.90355632 -69.02715399 27.58447527 -63.69140625 31.49707031 C-62.86447266 32.0990625 -62.03753906 32.70105469 -61.18554688 33.32128906 C-59.16432848 34.79339032 -57.14553863 36.26869638 -55.12890625 37.74707031 C-51.44036477 35.96813606 -48.19012928 33.76617446 -44.87890625 31.37207031 C-44.26684326 30.93217773 -43.65478027 30.49228516 -43.02416992 30.0390625 C-38.45800098 26.74278169 -33.94255277 23.3813783 -29.44140625 19.99707031 C-28.79107422 19.50972412 -28.14074219 19.02237793 -27.47070312 18.52026367 C-23.64068739 15.6472902 -19.82986311 12.7512996 -16.03125 9.83691406 C-14.31408352 8.53576131 -12.59664019 7.23497384 -10.87890625 5.93457031 C-10.06848877 5.30518555 -9.25807129 4.67580078 -8.4230957 4.02734375 C-7.27973755 3.16737793 -7.27973755 3.16737793 -6.11328125 2.29003906 C-5.44006836 1.77465576 -4.76685547 1.25927246 -4.07324219 0.72827148 C-2.12890625 -0.25292969 -2.12890625 -0.25292969 0 0 Z " fill="#2A3040" transform="translate(862.12890625,712.2529296875)"/>
<path d="M0 0 C20.71191136 0 20.71191136 0 25 4 C32.67316392 13.65458853 32.04247264 25.18905457 31 37 C29.61313931 42.40995228 27.42549465 46.27476761 22.875 49.5625 C14.54303925 53.72848037 12.24227639 52 0 52 C0 34.84 0 17.68 0 0 Z " fill="#293040" transform="translate(958,711)"/>
<path d="M0 0 C31.02667197 0 31.02667197 0 39.34375 8.02734375 C47.11159219 17.27913692 46.9097552 28.52643839 46 40 C44.2834221 48.41496339 40.91489427 53.08465321 34.0625 58.1875 C22.82105317 64.84060119 14.74952439 62 0 62 C0 41.54 0 21.08 0 0 Z M7 5 C7 22.16 7 39.32 7 57 C20.4698618 58.18464719 20.4698618 58.18464719 32 53 C39.67316392 43.34541147 39.04247264 31.81094543 38 20 C36.61313931 14.59004772 34.42549465 10.72523239 29.875 7.4375 C21.54303925 3.27151963 19.24227639 5 7 5 Z " fill="#D6D8DC" transform="translate(951,706)"/>
<path d="M0 0 C3.8227419 2.01755822 6.00860743 4.37286026 7.765625 8.27734375 C8.765625 12.27734375 8.765625 12.27734375 8.765625 25.27734375 C-0.474375 25.27734375 -9.714375 25.27734375 -19.234375 25.27734375 C-17.934375 35.34401042 -17.934375 35.34401042 -15.234375 40.27734375 C-10.57721899 43.38211442 -5.69048878 42.90522986 -0.234375 42.27734375 C2.11748191 41.18801468 3.71871643 39.90437364 5.765625 38.27734375 C6.755625 38.60734375 7.745625 38.93734375 8.765625 39.27734375 C7.25927035 43.49513678 4.52550078 45.05211115 0.765625 47.27734375 C-4.87152429 49.15639351 -10.96661911 49.17877688 -16.484375 46.83984375 C-21.13389666 44.1991418 -23.92530929 40.01532287 -26.234375 35.27734375 C-28.55470201 26.65697736 -28.42996932 16.27860728 -24.234375 8.27734375 C-18.29503411 -0.39043385 -10.40824661 -3.36630354 0 0 Z " fill="#D0D2D7" transform="translate(1032.234375,720.72265625)"/>
<path d="M0 0 C3.26825343 1.62745681 5.36053769 3.83573758 7.1328125 7.0625 C8.38938597 11.31900113 8.36850099 15.39642124 8.375 19.8125 C8.39949219 20.67681641 8.42398437 21.54113281 8.44921875 22.43164062 C8.47607465 28.36231771 7.54591352 33.12643049 4 38 C-0.45471292 40.96980861 -4.77810319 40.74926191 -10 40 C-13.90403724 37.21140197 -15.61988925 34.52436308 -17 30 C-17.31304928 26.68420278 -17.32462171 23.39112036 -17.3125 20.0625 C-17.33666992 18.74088867 -17.33666992 18.74088867 -17.36132812 17.39257812 C-17.36613774 10.97174381 -15.9878872 7.02158854 -12.4375 1.625 C-8.50162897 -0.99891402 -4.57218485 -0.83655117 0 0 Z " fill="#2B3242" transform="translate(1114,724)"/>
<path d="M0 0 C1.30453125 -0.03738281 2.6090625 -0.07476563 3.953125 -0.11328125 C9.02995952 0.45603456 11.9906985 2.36932851 15.39453125 6.12890625 C15.77996094 6.70511719 16.16539063 7.28132812 16.5625 7.875 C16.96082031 8.45378906 17.35914063 9.03257812 17.76953125 9.62890625 C20.413383 14.1687473 20.0074185 18.91414188 20.0625 24 C20.09150391 24.87333984 20.12050781 25.74667969 20.15039062 26.64648438 C20.21529909 33.33205667 18.98627152 38.81725964 14.33740234 43.83813477 C8.90598627 48.64432059 4.24561062 49.73023705 -2.8203125 49.5625 C-8.75147446 48.95221967 -12.47595032 45.69855773 -16.25 41.3125 C-20.97958765 33.20463546 -21.66840293 23.56714425 -19.6015625 14.453125 C-16.16197503 4.75172445 -10.14669929 0.18900714 0 0 Z M-10.19140625 9.48828125 C-12.87547188 14.11358992 -12.50637088 18.8174114 -12.5625 24 C-12.59150391 24.87333984 -12.62050781 25.74667969 -12.65039062 26.64648438 C-12.70845513 32.62712795 -11.84105823 37.39989597 -8.25 42.3125 C-3.79528708 45.28230861 0.52810319 45.06176191 5.75 44.3125 C9.65403724 41.52390197 11.36988925 38.83686308 12.75 34.3125 C13.06304928 30.99670278 13.07462171 27.70362036 13.0625 24.375 C13.07861328 23.49392578 13.09472656 22.61285156 13.11132812 21.70507812 C13.1161768 15.23209475 12.03910324 10.94843706 7.6875 5.9375 C0.62455849 2.03034087 -5.43028484 3.05469792 -10.19140625 9.48828125 Z " fill="#D4D6DB" transform="translate(1109.25,719.6875)"/>
<path d="M0 0 C5.06770218 -0.73476279 5.06770218 -0.73476279 8 0 C10.43737013 2.48146479 11.84273645 5.40098466 13.375 8.5 C14.21023835 10.09685387 15.05108409 11.69079171 15.8984375 13.28125 C16.25599121 13.99345703 16.61354492 14.70566406 16.98193359 15.43945312 C17.31789551 15.95443359 17.65385742 16.46941406 18 17 C18.66 17 19.32 17 20 17 C21.13149422 15.38119583 21.13149422 15.38119583 22.171875 13.28125 C22.79835938 12.13076172 22.79835938 12.13076172 23.4375 10.95703125 C24.30905542 9.32545876 25.16857466 7.68739672 26.015625 6.04296875 C27.22592309 3.84745849 28.3443252 1.88428262 30 0 C33.328125 -0.53125 33.328125 -0.53125 36 0 C32.60610876 6.46144678 28.71992028 12.33227239 24.37890625 18.203125 C22.66551448 20.87376971 22.66551448 20.87376971 23.72387695 23.37304688 C25.00421743 26.00868175 26.41990375 28.38693181 28.0390625 30.828125 C28.90917969 32.15070312 28.90917969 32.15070312 29.796875 33.5 C30.70179687 34.86125 30.70179687 34.86125 31.625 36.25 C32.8274839 38.06641028 34.02811321 39.88405019 35.2265625 41.703125 C35.75846191 42.50395508 36.29036133 43.30478516 36.83837891 44.12988281 C38 46 38 46 38 47 C33.05343511 47.8678184 33.05343511 47.8678184 30 47 C27.07619774 44.0284622 25.09724375 40.5836398 23 37 C22.02237261 35.49899632 21.04338338 33.99887797 20.0625 32.5 C18 29.26366559 18 29.26366559 18 27 C17.34 27 16.68 27 16 27 C15.76925781 27.66386719 15.53851562 28.32773437 15.30078125 29.01171875 C13.61971785 32.87362115 11.47827409 36.28693457 9.1875 39.8125 C8.76146484 40.50537109 8.33542969 41.19824219 7.89648438 41.91210938 C6.68937146 43.76569426 5.55989893 45.4308538 4 47 C1.17578125 47.44921875 1.17578125 47.44921875 -1 47 C0.26772184 43.54285154 1.7308771 40.72706156 3.890625 37.75 C4.43460938 36.9765625 4.97859375 36.203125 5.5390625 35.40625 C6.68495818 33.79467069 7.8413507 32.1905066 9.0078125 30.59375 C12.16245761 26.41509165 12.16245761 26.41509165 12.7109375 21.48046875 C11.86402344 20.25263672 11.86402344 20.25263672 11 19 C10.5978125 18.3601416 10.195625 17.7202832 9.78125 17.06103516 C8.34935192 14.78526777 6.86905369 12.54789251 5.375 10.3125 C4.35781422 8.79053578 3.34457986 7.2659208 2.3359375 5.73828125 C1.66377197 4.73341675 1.66377197 4.73341675 0.97802734 3.70825195 C0 2 0 2 0 0 Z " fill="#D5D7DC" transform="translate(1136,721)"/>
<path d="M0 0 C2.64 0 5.28 0 8 0 C11.28771538 7.47541989 13.57952126 15.13813228 15.828125 22.96875 C17.09118576 27.35880584 18.50842505 31.68228304 20 36 C23.22167264 28.22577065 26.02557011 20.33530492 28.75 12.375 C29.16121094 11.18003906 29.57242187 9.98507812 29.99609375 8.75390625 C30.99961551 5.83669184 32.00086769 2.91872006 33 0 C34.65 0 36.3 0 38 0 C35.73638132 9.08204927 32.75318845 17.88910351 29.70166016 26.72851562 C28.86523754 29.15330133 28.03581803 31.5804076 27.20703125 34.0078125 C26.67749278 35.54961985 26.14755979 37.09129178 25.6171875 38.6328125 C25.3692746 39.35872589 25.12136169 40.08463928 24.86593628 40.83255005 C23.1152008 45.8847992 23.1152008 45.8847992 22 47 C20.00041636 47.04080783 17.99954746 47.04254356 16 47 C13.8795973 40.95024886 11.76195927 34.89953522 9.64624023 28.84814453 C8.92617389 26.78965344 8.205475 24.73138351 7.48413086 22.67333984 C6.44739052 19.71509796 5.41292769 16.75606817 4.37890625 13.796875 C4.05596085 12.87694763 3.73301544 11.95702026 3.40028381 11.00921631 C3.10004807 10.1486261 2.79981232 9.28803589 2.49047852 8.40136719 C2.22622574 7.64635925 1.96197296 6.89135132 1.68971252 6.11346436 C1.0295774 4.09063309 0.48831435 2.07032243 0 0 Z " fill="#D6D8DC" transform="translate(1046,721)"/>
<path d="M0 0 C3.28175318 2.52968474 4.69243777 4.07731331 6 8 C6 11.3 6 14.6 6 18 C-1.26 18 -8.52 18 -16 18 C-16 7.84971098 -16 7.84971098 -13.625 4.5 C-13.18414063 3.8503125 -12.74328125 3.200625 -12.2890625 2.53125 C-9.21681169 -1.11821157 -4.38386545 -0.68900131 0 0 Z " fill="#313847" transform="translate(1029,724)"/>
<path d="M0 0 C2.66698331 0.73853737 2.66698331 0.73853737 5.5625 -0.5 C5.5625 2.14 5.5625 4.78 5.5625 7.5 C6.8825 7.5 8.2025 7.5 9.5625 7.5 C9.5625 4.86 9.5625 2.22 9.5625 -0.5 C10.2225 -0.5 10.8825 -0.5 11.5625 -0.5 C11.5625 2.47 11.5625 5.44 11.5625 8.5 C5.93274508 9.5235918 1.19225492 9.5235918 -4.4375 8.5 C-4.4375 5.86 -4.4375 3.22 -4.4375 0.5 C-2.4375 -0.5 -2.4375 -0.5 0 0 Z " fill="#979BA4" transform="translate(1046.4375,809.5)"/>
<path d="M0 0 C0.33 1.32 0.66 2.64 1 4 C-1.31 3.67 -3.62 3.34 -6 3 C-6 3.66 -6 4.32 -6 5 C-2.535 6.485 -2.535 6.485 1 8 C1.125 10.375 1.125 10.375 1 13 C-1 15 -1 15 -4.4375 15.3125 C-8 15 -8 15 -9.9375 13.625 C-11 12 -11 12 -11 10 C-9.68 10 -8.36 10 -7 10 C-7 10.66 -7 11.32 -7 12 C-5.35 12 -3.7 12 -2 12 C-2 11.01 -2 10.02 -2 9 C-4.31 8.34 -6.62 7.68 -9 7 C-10.31236443 2.5856833 -10.31236443 2.5856833 -9 0.125 C-5.89740743 -1.62020832 -3.3726293 -0.69997967 0 0 Z " fill="#D8DADE" transform="translate(1205,707)"/>
<path d="M0 0 C2 2 2 2 2 5 C-0.0714124 4.4821469 -2.13420076 3.96165693 -4.1875 3.375 C-4.785625 3.25125 -5.38375 3.1275 -6 3 C-7.20561184 3.98267859 -7.20561184 3.98267859 -7.09765625 5.84765625 C-7.08605469 6.57855469 -7.07445312 7.30945313 -7.0625 8.0625 C-7.041875 9.361875 -7.02125 10.66125 -7 12 C-4.03 11.34 -1.06 10.68 2 10 C0 14 0 14 -1 15 C-7.35412027 15.47067558 -7.35412027 15.47067558 -9.69921875 13.76171875 C-11.76075192 10.96967233 -11.47554483 8.53422843 -11.34375 5.16796875 C-11 3 -11 3 -9.4375 0.375 C-5.96007281 -1.58662559 -3.78566071 -0.98146759 0 0 Z " fill="#D1D3D8" transform="translate(1233,707)"/>
<path d="M0 0 C3.3 0 6.6 0 10 0 C10 0.66 10 1.32 10 2 C7.69 2 5.38 2 3 2 C3 3.32 3 4.64 3 6 C5.31 6 7.62 6 10 6 C10 6.99 10 7.98 10 9 C7.69 9 5.38 9 3 9 C3 9.99 3 10.98 3 12 C5.31 12 7.62 12 10 12 C10 12.99 10 13.98 10 15 C6.7 15 3.4 15 0 15 C0 10.05 0 5.1 0 0 Z " fill="#D2D4D9" transform="translate(1209,707)"/>
<path d="M0 0 C0.33 0 0.66 0 1 0 C1 4.29 1 8.58 1 13 C-0.98 13.33 -2.96 13.66 -5 14 C-6 13 -6 13 -6.09765625 11.15234375 C-6.06510417 9.1015625 -6.03255208 7.05078125 -6 5 C-4.35 4.67 -2.7 4.34 -1 4 C-0.67 2.68 -0.34 1.36 0 0 Z " fill="#565B68" transform="translate(1158,805)"/>
<path d="M0 0 C4.55555556 0.55555556 4.55555556 0.55555556 6 2 C6.1875 4.9375 6.1875 4.9375 6 8 C5.34 8.66 4.68 9.32 4 10 C-0.55555556 9.44444444 -0.55555556 9.44444444 -2 8 C-2.1875 5.0625 -2.1875 5.0625 -2 2 C-1.34 1.34 -0.68 0.68 0 0 Z " fill="#6B717C" transform="translate(1131,809)"/>
<path d="M0 0 C2.625 0.375 2.625 0.375 5 1 C5.5625 2.9375 5.5625 2.9375 6 5 C5 6 5 6 2.4375 6.0625 C1.2309375 6.0315625 1.2309375 6.0315625 0 6 C0 6.66 0 7.32 0 8 C1.98 8 3.96 8 6 8 C5.67 8.66 5.34 9.32 5 10 C2.625 10.1875 2.625 10.1875 0 10 C-2.14915785 6.77626323 -2.38286803 5.73296326 -2 2 C-1.34 1.34 -0.68 0.68 0 0 Z " fill="#6E737E" transform="translate(1102,809)"/>
<path d="M0 0 C0.33 0 0.66 0 1 0 C1 4.95 1 9.9 1 15 C-2 12 -2 12 -2.25 10 C-2.91274564 7.53756152 -2.91274564 7.53756152 -6.5625 6.25 C-7.696875 5.8375 -8.83125 5.425 -10 5 C-9.67 4.01 -9.34 3.02 -9 2 C-6.36 2.33 -3.72 2.66 -1 3 C-0.67 2.01 -0.34 1.02 0 0 Z " fill="#434958" transform="translate(1208,707)"/>
<path d="M0 0 C0.66 0 1.32 0 2 0 C2.33 1.32 2.66 2.64 3 4 C4.65 4.33 6.3 4.66 8 5 C8 7.97 8 10.94 8 14 C7.34 14 6.68 14 6 14 C6 11.36 6 8.72 6 6 C4.68 6 3.36 6 2 6 C2 8.64 2 11.28 2 14 C1.34 14 0.68 14 0 14 C0 9.38 0 4.76 0 0 Z " fill="#787D87" transform="translate(1090,805)"/>
<path d="M0 0 C1.2065625 0.0309375 1.2065625 0.0309375 2.4375 0.0625 C2.7675 1.0525 3.0975 2.0425 3.4375 3.0625 C0.4675 2.5675 0.4675 2.5675 -2.5625 2.0625 C-2.2325 3.0525 -1.9025 4.0425 -1.5625 5.0625 C0.94197516 6.28119929 0.94197516 6.28119929 3.4375 7.0625 C2.5625 11.9375 2.5625 11.9375 1.4375 13.0625 C-0.22867115 13.10313832 -1.89638095 13.105221 -3.5625 13.0625 C-3.8925 12.4025 -4.2225 11.7425 -4.5625 11.0625 C-2.5825 11.0625 -0.6025 11.0625 1.4375 11.0625 C0.19203595 7.32610784 -1.19654953 6.87493487 -4.5625 5.0625 C-3.43829114 0.08386076 -3.43829114 0.08386076 0 0 Z " fill="#686D79" transform="translate(1026.5625,805.9375)"/>
<path d="M0 0 C6.75 0.75 6.75 0.75 9 3 C9 3.99 9 4.98 9 6 C8.443125 5.855625 7.88625 5.71125 7.3125 5.5625 C4.88615805 4.97230872 2.45093655 4.476571 0 4 C0 2.68 0 1.36 0 0 Z " fill="#C4C7CC" transform="translate(1226,706)"/>
<path d="M0 0 C1.65 0 3.3 0 5 0 C5 1.65 5 3.3 5 5 C3.35 5.33 1.7 5.66 0 6 C0 4.02 0 2.04 0 0 Z " fill="#D8DADF" transform="translate(1153,811)"/>
<path d="M0 0 C2.475 0.495 2.475 0.495 5 1 C4.67 2.65 4.34 4.3 4 6 C2.68 6 1.36 6 0 6 C0 4.02 0 2.04 0 0 Z " fill="#D7D9DE" transform="translate(1131,811)"/>
<path d="M0 0 C2.31 0.33 4.62 0.66 7 1 C7.33 2.32 7.66 3.64 8 5 C5.36 4.67 2.72 4.34 0 4 C0 2.68 0 1.36 0 0 Z " fill="#C1C4CA" transform="translate(1198,706)"/>
<path d="M0 0 C1.65 0.33 3.3 0.66 5 1 C4.67 2.32 4.34 3.64 4 5 C2.35 5 0.7 5 -1 5 C-0.67 3.35 -0.34 1.7 0 0 Z " fill="#A4A8B0" transform="translate(1103,810)"/>
<path d="M0 0 C1.65 0.33 3.3 0.66 5 1 C4.67 2.32 4.34 3.64 4 5 C2.35 5 0.7 5 -1 5 C-0.67 3.35 -0.34 1.7 0 0 Z " fill="#A6A9B1" transform="translate(1035,810)"/>
<path d="M0 0 C0.33 0.66 0.66 1.32 1 2 C1.99 2.33 2.98 2.66 4 3 C3.01 3 2.02 3 1 3 C1 5.31 1 7.62 1 10 C1.99 10 2.98 10 4 10 C4 10.66 4 11.32 4 12 C2.68 11.67 1.36 11.34 0 11 C-0.19491452 9.54263913 -0.38069358 8.08405407 -0.5625 6.625 C-0.66691406 5.81289063 -0.77132813 5.00078125 -0.87890625 4.1640625 C-1 2 -1 2 0 0 Z " fill="#4D5360" transform="translate(1084,807)"/>
<path d="M0 0 C1.32 0 2.64 0 4 0 C4 0.66 4 1.32 4 2 C5.32 2.33 6.64 2.66 8 3 C7.01 3 6.02 3 5 3 C5 3.66 5 4.32 5 5 C3.0625 4.1875 3.0625 4.1875 1 3 C0.67 2.01 0.34 1.02 0 0 Z " fill="#BFC2C8" transform="translate(1194,717)"/>
</svg>
