<svg xmlns="http://www.w3.org/2000/svg" viewBox="0 0 841.9 595.3">
  <g fill="#61DAFB">
    <path d="m420.9 282.9c-25.5 0-46.2-20.7-46.2-46.2s20.7-46.2 46.2-46.2 46.2 20.7 46.2 46.2-20.7 46.2-46.2 46.2zm0-72.6c-12.8 0-23.1 10.3-23.1 23.1s10.3 23.1 23.1 23.1 23.1-10.3 23.1-23.1-10.3-23.1-23.1-23.1z"/>
    <path d="m420.9 282.9c-25.5 0-46.2-20.7-46.2-46.2s20.7-46.2 46.2-46.2 46.2 20.7 46.2 46.2-20.7 46.2-46.2 46.2zm0-72.6c-12.8 0-23.1 10.3-23.1 23.1s10.3 23.1 23.1 23.1 23.1-10.3 23.1-23.1-10.3-23.1-23.1-23.1z"/>
  </g>
</svg>